<?xml version="1.0" standalone="no"?>
<!DOCTYPE svg PUBLIC "-//W3C//DTD SVG 1.1//EN" "http://www.w3.org/Graphics/SVG/1.1/DTD/svg11.dtd" >
<svg xmlns="http://www.w3.org/2000/svg">
<metadata></metadata>
<defs>
<font id="fonce_sansregular" horiz-adv-x="1257" >
<font-face units-per-em="2048" ascent="1638" descent="-410" />
<missing-glyph horiz-adv-x="716" />
<glyph horiz-adv-x="0" />
<glyph horiz-adv-x="0" />
<glyph horiz-adv-x="682" />
<glyph unicode="&#xd;" horiz-adv-x="620" />
<glyph unicode=" "  horiz-adv-x="716" />
<glyph unicode="&#x09;" horiz-adv-x="716" />
<glyph unicode="&#xa0;" horiz-adv-x="716" />
<glyph unicode="!" horiz-adv-x="497" d="M147 80q0 41 30 71.5t71 30.5t71.5 -30.5t30.5 -71.5t-30.5 -70.5t-71.5 -29.5t-71 29.5t-30 70.5zM158 305h182v1129h-182v-1129z" />
<glyph unicode="&#x22;" horiz-adv-x="684" d="M72 1120h135l119 314h-176zM358 1120h136l118 314h-176z" />
<glyph unicode="#" horiz-adv-x="1024" d="M143 526v131h205l62 289h-189v135h221l70 353h154l-72 -353h326l69 353h150l-70 -353h164v-135h-197l-61 -289h182v-131h-211l-74 -362h-151l74 362h-328l-72 -362h-151l73 362h-174zM498 657h325l62 289h-326z" />
<glyph unicode="$" horiz-adv-x="1044" d="M61 176l121 139q4 -5 10.5 -12.5t30.5 -29.5t50.5 -40.5t68.5 -38.5t86 -30v495q-32 12 -59 23t-64 30.5t-66 40.5t-59.5 52.5t-51 66t-33.5 80.5t-13 97q0 162 91.5 272.5t254.5 128.5v178h137v-178q64 -5 121.5 -18.5t93.5 -29.5t63 -31.5t39 -25.5l11 -10l-86 -155 q-3 3 -9 8.5t-28 19.5t-48 25.5t-68.5 23.5t-88.5 17v-473q7 -3 22.5 -8.5t22.5 -8.5q32 -12 57.5 -22.5t66 -32t72 -44t66.5 -57t58 -72t38 -88.5t15 -108q0 -72 -26 -137t-75.5 -118t-131.5 -86.5t-185 -38.5v-205h-137v209q-70 10 -133.5 33.5t-104.5 49.5t-71.5 51 t-44.5 42zM262 1061q0 -114 166 -201v414q-83 -14 -124.5 -72t-41.5 -141zM565 156q69 4 118 24.5t74 52t35.5 64.5t10.5 70q0 132 -238 239v-450z" />
<glyph unicode="%" horiz-adv-x="1527" d="M61 1092q0 75 6.5 127t25.5 99.5t52.5 75.5t88 44t131.5 16q76 0 130 -16t87.5 -44t52.5 -74.5t26 -99.5t7 -128q0 -96 -11.5 -157.5t-43 -111t-92.5 -72t-156 -22.5q-96 0 -157 22.5t-93 72t-43 111t-11 157.5zM178 0l991 1444h177l-990 -1444h-178zM201 1092 q0 -70 5 -109.5t22.5 -70t49.5 -41.5t87 -11q44 0 73 8t47.5 23.5t28 45t13 64.5t3.5 91t-3.5 91t-13 65t-28 45t-47.5 23.5t-73 8.5q-55 0 -87 -11t-49.5 -41t-22.5 -70t-5 -111zM860 342q0 75 6.5 127t25.5 99.5t52 75.5t87.5 44.5t131.5 16.5q94 0 155 -23t93 -72.5 t43.5 -111.5t11.5 -156q0 -63 -4.5 -109t-16.5 -89t-33.5 -71.5t-55 -50.5t-81.5 -32t-112 -10q-77 0 -131.5 15.5t-87.5 43t-52 74.5t-25.5 100t-6.5 129zM999 342q0 -70 5 -109.5t22.5 -69.5t49.5 -41t87 -11t87.5 11t50 41t23 69.5t5.5 109.5t-5.5 110t-23 70t-50 41.5 t-87.5 11.5t-87 -11t-49.5 -41t-22.5 -70t-5 -111z" />
<glyph unicode="&#x26;" horiz-adv-x="1351" d="M72 403q0 76 20.5 135.5t70 110.5t86.5 79.5t113 78.5q10 7 15 10q-84 101 -112 144q-60 96 -60 182q0 140 84 225.5t262 85.5q136 0 226.5 -88t90.5 -219q0 -90 -27 -151t-93 -109l-130 -94l328 -398q91 139 94 338l160 -88q-2 -99 -36 -202t-101 -183l217 -260h-248 l-98 121q-151 -141 -402 -141q-211 0 -335.5 115.5t-124.5 307.5zM244 408q0 -113 92 -192t215 -79q142 0 285 129l-355 422q-118 -81 -153 -113q-84 -78 -84 -167zM383 1151q0 -49 28 -98.5t103 -141.5l78 54q56 39 80 76.5t24 105.5q0 51 -41.5 99t-109.5 48 q-77 0 -119.5 -35.5t-42.5 -107.5z" />
<glyph unicode="'" horiz-adv-x="200" d="M31 1120h135l119 314h-176z" />
<glyph unicode="(" horiz-adv-x="532" d="M59 717q0 146 24.5 276t63 220.5t85.5 166.5t94.5 122t86 78t63.5 45l24 13l41 -137q-7 -5 -18.5 -14.5t-45 -44.5t-64.5 -76t-68 -109t-64 -143.5t-45.5 -180t-18.5 -216.5t18 -216.5t46.5 -181t63 -142.5t69 -110t63 -75.5t46.5 -45.5l18 -14l-41 -137q-9 4 -25 13 t-62 44.5t-87.5 79.5t-92.5 121.5t-87.5 167t-61.5 220t-25 276.5z" />
<glyph unicode=")" horiz-adv-x="512" d="M-6 -68l41 -137q9 4 25 13t61.5 44.5t87 79.5t92.5 121.5t87.5 167t61.5 220t25 276.5q0 115 -15 220t-40.5 185.5t-58.5 151.5t-69.5 122t-73 93.5t-69.5 69.5t-58.5 45.5t-40.5 25.5l-15 8l-41 -137q7 -5 18.5 -14.5t45 -44.5t64 -76t68 -109t64 -143.5t45 -180 t18.5 -216.5t-18 -216.5t-46.5 -181t-62.5 -142.5t-68.5 -110t-63 -75.5t-46.5 -45.5z" />
<glyph unicode="*" horiz-adv-x="724" d="M70 1036l65 -112l520 305l-65 112zM70 1229l520 -305l65 112l-520 305zM297 831h131v603h-131v-603z" />
<glyph unicode="+" horiz-adv-x="745" d="M-10 449v172h297v297h172v-297h297v-172h-295l-2 -297h-172v297h-297z" />
<glyph unicode="," horiz-adv-x="352" d="M72 66q0 31 9.5 53.5t21 33t28.5 16.5t24.5 6.5t16.5 0.5t17 -0.5t26.5 -6.5t31.5 -16.5t23.5 -33t10.5 -53.5q0 -51 -14 -98.5t-33.5 -78.5t-39 -54.5t-33.5 -34.5l-14 -11l-51 53q33 19 57 51.5t32 54.5l8 23q-5 -1 -13 -1t-29 3.5t-37 12t-29 29t-13 51.5z" />
<glyph unicode="-" horiz-adv-x="868" d="M51 449v172h766v-172h-766z" />
<glyph unicode="." horiz-adv-x="346" d="M72 80q0 41 29.5 71.5t70.5 30.5t71.5 -30.5t30.5 -71.5t-30.5 -70.5t-71.5 -29.5t-70.5 29.5t-29.5 70.5z" />
<glyph unicode="/" horiz-adv-x="675" d="M51 2l395 1444h179l-398 -1444h-176z" />
<glyph unicode="0" horiz-adv-x="1140" d="M113 604q0 81 4.5 147t17.5 135t34 122.5t56 101.5t82 79.5t113.5 49.5t148.5 18q113 0 196 -35t133 -92.5t79.5 -145t40 -176.5t10.5 -204t-10 -202.5t-39.5 -172t-79.5 -138.5t-133 -87t-197 -33q-82 0 -148 17t-113.5 46t-82 74.5t-56 96.5t-34.5 118.5t-17.5 133 t-4.5 147.5zM289 604q0 -473 282 -473q281 0 281 473q0 82 -8 151.5t-28.5 134t-51.5 109.5t-80.5 72t-112.5 27q-79 0 -136 -39.5t-87.5 -110.5t-44.5 -155.5t-14 -188.5z" />
<glyph unicode="1" horiz-adv-x="608" d="M147 1159l54 -145l84 37v-1051h176v1229h-176z" />
<glyph unicode="2" horiz-adv-x="1056" d="M113 0v160q0 67 26.5 131t70.5 114.5t100.5 99.5t116 87.5t117 78t104 71.5t77 66.5t35.5 65.5q10 62 -2 108t-42 72t-69.5 38t-89.5 12q-101 0 -164.5 -30.5t-89.5 -110.5l-153 61q30 109 134 171t273 62q85 0 157.5 -26.5t127.5 -77.5t78 -136t4 -192q-9 -50 -49 -100 t-95.5 -93t-121 -86.5t-127.5 -88t-112 -89.5t-78.5 -99t-23.5 -109h617v-160h-821z" />
<glyph unicode="3" horiz-adv-x="1032" d="M92 -10l156 69q26 -104 92.5 -173.5t171.5 -69.5q73 0 129 25.5t88.5 69t49 96.5t16.5 112q0 65 -17 118.5t-53 96.5t-99.5 64t-148.5 14v172q85 -7 145 12t92.5 60.5t46 92t13.5 117.5q0 62 -22.5 108.5t-62 72.5t-86 38.5t-101.5 12.5q-54 0 -98 -20t-74 -55.5t-50 -77 t-32 -91.5l-156 70q28 141 137 237t277 96q221 0 332.5 -102t111.5 -293q0 -286 -180 -364q94 -41 147.5 -138t53.5 -237q0 -221 -117 -344t-338 -123q-169 0 -282.5 97t-141.5 237z" />
<glyph unicode="4" horiz-adv-x="976" d="M113 0v139l450 1090h180l-442 -1069h328v475h176v-475h90v-160h-90v-225h-176v225h-516z" />
<glyph unicode="5" horiz-adv-x="1083" d="M102 -10l162 73q26 -103 89.5 -167t168.5 -64q72 0 128 35t87.5 90.5t47.5 116.5t16 121q0 65 -15.5 126.5t-46.5 115t-85.5 86t-125.5 32.5q-63 0 -113 -22t-76 -53t-43.5 -62.5t-22.5 -53.5l-5 -22l-149 109l84 778h715l-95 -160h-469l-32 -407q2 3 7 7.5t23.5 16.5 t40 21t57.5 16.5t76 7.5q208 0 331.5 -148.5t123.5 -387.5q0 -110 -29.5 -207t-85.5 -171.5t-143.5 -117.5t-196.5 -43q-169 0 -282.5 97t-141.5 237z" />
<glyph unicode="6" horiz-adv-x="1130" d="M113 438q0 97 17.5 186.5t36 139.5t58.5 145l322 637l143 -110l-293 -572q15 13 65.5 26t102.5 13q212 0 332.5 -122.5t120.5 -342.5q0 -95 -29.5 -178.5t-84.5 -148.5t-142.5 -102.5t-196.5 -37.5q-108 0 -195.5 37.5t-142.5 102.5t-84.5 148.5t-29.5 178.5zM301 438 q0 -53 13.5 -101.5t42.5 -92.5t82.5 -70.5t125.5 -26.5t127 26.5t85.5 70.5t45.5 93t15 101q0 77 -26 140t-89.5 106t-157.5 43q-71 0 -124 -24.5t-82.5 -66.5t-43.5 -91.5t-14 -106.5z" />
<glyph unicode="7" horiz-adv-x="921" d="M31 1229h860v-160l-576 -1384h-200l585 1384h-634z" />
<glyph unicode="8" horiz-adv-x="1069" d="M82 395q0 -193 117 -308.5t336 -115.5q218 0 335 115.5t117 308.5q0 119 -41 215.5t-123 147.5q119 107 119 313q0 192 -110.5 303t-296.5 111t-297 -111t-111 -303q0 -208 119 -315q-82 -51 -123 -146.5t-41 -214.5zM258 389q0 56 16 105.5t48 89.5t87 63t126 23 t125.5 -23t86.5 -63.5t48 -89.5t16 -105q0 -51 -15.5 -96t-47 -82t-86 -58.5t-127.5 -21.5t-128 21.5t-86.5 58.5t-47 82t-15.5 96zM297 1071q0 110 60 182t178 72q117 0 177 -72t60 -182q0 -112 -58 -177t-179 -65q-122 0 -180 65t-58 177z" />
<glyph unicode="9" horiz-adv-x="1038" d="M72 791q0 95 29 178.5t84 148t142.5 102t196.5 37.5q108 0 195.5 -37.5t143 -102t85 -148t29.5 -178.5q0 -97 -18 -187t-36 -139t-59 -146l-321 -636h-201l350 682q-15 -13 -65.5 -26t-102.5 -13q-212 0 -332 122.5t-120 342.5zM252 791q0 -57 15.5 -107t46.5 -91.5 t85 -66t125 -24.5t124 24.5t82.5 66.5t43.5 91.5t14 106.5q0 53 -13.5 101.5t-42.5 92t-82.5 70t-125.5 26.5t-127 -26.5t-85 -70t-45 -92.5t-15 -101z" />
<glyph unicode=":" horiz-adv-x="485" d="M141 80q0 41 30 71.5t71 30.5t71.5 -30.5t30.5 -71.5t-30.5 -70.5t-71.5 -29.5t-71 29.5t-30 70.5zM141 715q0 41 30 71.5t71 30.5t71.5 -30.5t30.5 -71.5t-30.5 -71t-71.5 -30t-71 30t-30 71z" />
<glyph unicode=";" horiz-adv-x="339" d="M72 74q0 31 9.5 53.5t21 33t28.5 16.5t24.5 6.5t16.5 0.5t17 -0.5t26.5 -6.5t31.5 -16.5t23.5 -33t10.5 -53.5q0 -51 -11.5 -94t-28.5 -67.5t-33.5 -42t-27.5 -24.5l-12 -6l-51 54q33 19 52 40.5t21 33.5l3 12q-5 -1 -13 -1t-29 3t-37 11.5t-29 29t-13 51.5zM72 715 q0 41 29.5 71.5t70.5 30.5t71.5 -30.5t30.5 -71.5t-30.5 -71t-71.5 -30t-70.5 30t-29.5 71z" />
<glyph unicode="&#x3c;" horiz-adv-x="1191" d="M20 457v108l1110 459v-162l-890 -350l890 -350v-162z" />
<glyph unicode="=" horiz-adv-x="909" d="M72 276v173h766v-173h-766zM72 616v172h766v-172h-766z" />
<glyph unicode="&#x3e;" horiz-adv-x="1191" d="M61 0l1110 457v108l-1110 459v-162l891 -350l-891 -350v-162z" />
<glyph unicode="?" horiz-adv-x="929" d="M82 1210l164 -77q46 141 223 141q38 0 73 -9.5t68 -31t49 -65.5t7 -105q-7 -52 -47 -114t-89.5 -125t-97 -136t-76 -173t-20.5 -210h172q-2 80 13 148t41.5 118t59 93.5t67.5 84.5t66.5 81.5t57.5 93t37 110.5q6 31 7.5 65t-5.5 74.5t-22 78t-44.5 73t-71 61.5t-104.5 42 t-141 16q-322 0 -387 -234zM324 80q0 41 29.5 71.5t70.5 30.5t71.5 -30.5t30.5 -71.5t-30.5 -70.5t-71.5 -29.5t-70.5 29.5t-29.5 70.5z" />
<glyph unicode="@" horiz-adv-x="1277" d="M102 317v799q0 126 102 222t275 96h320q173 0 275 -96t102 -222v-850q-144 -28 -353 -28q-200 0 -333.5 108.5t-133.5 296.5q0 126 64 220.5t169 142t234 47.5q52 0 176 -9v60q0 7 -1 18.5t-11.5 40.5t-29.5 51.5t-61 41t-99 18.5h-316q-57 0 -99 -17.5t-61 -42.5 t-29.5 -50t-11.5 -42l-1 -18v-774q0 -7 1 -18.5t11.5 -40.5t29.5 -51.5t61 -41t99 -18.5h695v-160h-697q-173 0 -275 95.5t-102 221.5zM539 643q0 -100 69.5 -170.5t190.5 -73.5q133 0 202 15v463q-64 14 -202 14q-121 -3 -190.5 -75t-69.5 -173z" />
<glyph unicode="A" d="M61 0l488 1434h160l487 -1434h-180l-144 406h-491l-143 -406h-177zM426 569h403l-200 598z" />
<glyph unicode="B" horiz-adv-x="1320" d="M147 0v1434q166 10 309 10t263 -10q26 -2 49 -6t61 -15t69 -27.5t66 -46.5t58.5 -68t39 -96t15.5 -128q0 -67 -14 -120.5t-34 -82.5t-40.5 -48.5t-34.5 -25.5l-14 -6q5 -1 14 -4t34 -16.5t48 -31t51.5 -50.5t48.5 -72.5t34 -99t14 -128.5q0 -76 -19 -134.5t-46 -97 t-79.5 -65t-95.5 -40.5t-120 -21.5t-128 -9t-142 -2.5h-7h-36q-42 0 -109 1q-100 2 -178 5zM336 176q110 -10 223 -10t229 10q28 3 46.5 6t52 16.5t53.5 34t36.5 62t16.5 96.5q0 61 -18 107t-41.5 69t-54.5 37.5t-48 18t-32 4.5q-74 4 -189.5 4t-194.5 -2l-79 -2v-451z M336 799q118 -4 201 -4t131 4q1 0 15.5 1t23 2t26.5 5t30 8.5t29.5 14t30 21t26 29.5t21.5 39.5t13.5 51t5.5 63.5q0 164 -141 211q-29 10 -82 15q-73 5 -140 5q-7 -1 -13 -1q-73 0 -125 -4l-52 -3v-458z" />
<glyph unicode="C" horiz-adv-x="1341" d="M113 717q0 118 19.5 223t65 200.5t113 164t170.5 109t232 40.5q221 0 365 -106t202 -287l-174 -88q-42 137 -143.5 221t-249.5 84q-86 0 -156 -32.5t-117.5 -86.5t-79.5 -127t-46.5 -152t-14.5 -163t14.5 -164t46.5 -154t79.5 -129.5t117.5 -89t156 -33.5 q148 0 249.5 84.5t143.5 221.5l174 -88q-58 -181 -202 -287.5t-365 -106.5q-129 0 -232 41.5t-170.5 111t-113 166.5t-65 203t-19.5 224z" />
<glyph unicode="D" horiz-adv-x="1380" d="M147 0v1434h570q56 0 109 -7.5t113.5 -28.5t112 -54.5t100 -89.5t82.5 -128.5t54.5 -177.5t20.5 -231t-20.5 -231t-54.5 -177.5t-82.5 -128.5t-100 -89.5t-112 -54.5t-113.5 -28.5t-109 -7.5h-570zM336 184h381q68 0 125.5 18t96.5 49t70.5 71t49.5 84.5t31 88.5t17.5 84 t7 71t1.5 49v18q-2 1 0 19q1 6 1 14q-1 14 -3 34q-4 32 -7.5 71t-17.5 83.5t-31 88.5t-49 84t-70.5 71t-96 49t-125.5 18h-381v-1065z" />
<glyph unicode="E" horiz-adv-x="1046" d="M147 0h818v184h-629v434h510v185h-510v446h629v185h-818v-1434z" />
<glyph unicode="F" horiz-adv-x="1036" d="M147 0h189v618h510v185h-510v446h629v185h-818v-1434z" />
<glyph unicode="G" horiz-adv-x="1382" d="M113 711q0 118 19.5 223.5t64.5 202t112.5 166t170 110.5t231.5 41q216 0 362.5 -107.5t206.5 -285.5l-174 -88q-44 134 -147 219.5t-248 85.5q-86 0 -156 -33t-117 -88t-79 -129t-46 -153.5t-14 -163.5t15 -162.5t51.5 -153t90 -129.5t136.5 -88t186 -33q124 0 203 3.5 t96 6.5l17 3v413h-383l116 185h447v-754q-151 -31 -467 -31q-694 0 -694 740z" />
<glyph unicode="H" horiz-adv-x="1312" d="M147 0v1434h189v-631h641v631h188v-1434h-188v618h-641v-618h-189z" />
<glyph unicode="I" horiz-adv-x="483" d="M147 0h189v1434h-189v-1434z" />
<glyph unicode="J" horiz-adv-x="1030" d="M51 92q6 -5 17 -13t48.5 -29t80 -37t109 -29t136.5 -13q90 0 162.5 22t117.5 54t78 79.5t48.5 86.5t24 89t9.5 71.5t1 48.5v1012h-189v-1012q0 -117 -72 -191.5t-180 -74.5q-73 0 -143.5 22t-104.5 44l-34 22z" />
<glyph unicode="K" horiz-adv-x="1292" d="M147 0v1434h189v-893l506 893h209l-297 -512l436 -922h-225l-330 700l-299 -499v-201h-189z" />
<glyph unicode="L" horiz-adv-x="1005" d="M147 0h818v184h-629v1250h-189v-1434z" />
<glyph unicode="M" horiz-adv-x="1474" d="M154 0v1434h182l401 -752l402 752h182v-1434h-182v1026l-332 -600h-139l-332 600v-1026h-182z" />
<glyph unicode="N" horiz-adv-x="1347" d="M147 0h189v1087l676 -1087h188v1434h-188v-1082l-676 1082h-189v-1434z" />
<glyph unicode="O" horiz-adv-x="1441" d="M113 717q0 118 19.5 223t65 200.5t113 164t170.5 109t232 40.5q128 0 232 -40.5t174.5 -109.5t118.5 -164t69.5 -200.5t21.5 -222.5q0 -118 -22 -225t-70 -202.5t-118.5 -165t-174.5 -110.5t-231 -41q-129 0 -232 40.5t-170.5 110t-113 165.5t-65 202t-19.5 226zM299 717 q0 -84 14.5 -163t46.5 -153t79.5 -129.5t118 -88.5t155.5 -33q86 0 159 33.5t122.5 89t84.5 129t51.5 153.5t16.5 162t-16.5 161.5t-51.5 152t-85 127.5t-122.5 87.5t-158.5 32.5t-156 -32.5t-117.5 -86.5t-79.5 -127t-46.5 -152t-14.5 -163z" />
<glyph unicode="P" horiz-adv-x="1112" d="M147 0v1434h502q30 0 60 -3t72.5 -14t79.5 -28.5t74.5 -49t64.5 -73.5t44 -105t17 -139q0 -79 -17.5 -143.5t-44 -106t-65 -72t-74.5 -46t-79.5 -25t-72 -11.5t-59.5 -2h-313v-616h-189zM336 801h313q90 4 138 32q89 53 90 181q0 48 -11 87t-26.5 63t-39.5 41.5t-43 25.5 t-44.5 12.5t-36.5 5t-27 0.5h-313v-448z" />
<glyph unicode="Q" horiz-adv-x="1509" d="M115 717v-12q0 -113 18 -214q19 -106 63.5 -202.5t111.5 -166t169.5 -110.5t231.5 -41q254 0 407 160l166 -160l125 123l-188 189q85 176 88 434q0 118 -19 222.5t-63.5 200t-111.5 164.5t-169 109.5t-229 40.5q-129 0 -232 -40.5t-170.5 -109t-113 -164t-65 -200.5 t-19.5 -223zM301 717q0 84 14.5 163t46.5 152t79.5 127t117.5 86.5t156 32.5t156.5 -33t117 -87.5t78 -127.5t45.5 -151.5t14 -161.5q0 -170 -49 -293l-106 106l-125 -124l139 -140q-109 -119 -272 -119q-106 0 -188 50.5t-129.5 134t-71 181.5t-23.5 204z" />
<glyph unicode="R" horiz-adv-x="1234" d="M147 0v1434h502q18 0 36 -1t62 -9t81 -22t82.5 -45t76.5 -73t52.5 -110t21.5 -152q0 -133 -49.5 -223t-128.5 -133l301 -666h-217l-269 616h-362v-616h-189zM336 801h313q90 4 139 32q91 51 91 181q0 55 -14 97.5t-38 66.5t-48.5 40t-54 22t-45 7.5t-30.5 1.5h-313v-448z " />
<glyph unicode="S" horiz-adv-x="1044" d="M61 170q6 -8 17.5 -21.5t54 -48t92 -60.5t131 -47.5t170.5 -21.5q91 0 167.5 25t129 67t89.5 97.5t54 115t17 119.5q0 83 -24.5 149.5t-65.5 110t-94.5 78t-113 57.5t-118.5 43t-112.5 40.5t-94.5 44.5t-65.5 60t-24.5 83q0 96 52.5 152.5t162.5 56.5q62 0 118 -10 t91 -25t61 -29.5t37 -24.5l11 -10l90 164q-5 5 -14.5 13t-45.5 28.5t-79 36t-115 28.5t-152 13q-187 0 -296 -117.5t-109 -294.5q0 -77 24.5 -137.5t65.5 -99t94.5 -67.5t113 -48.5t118.5 -37.5t112.5 -38.5t94.5 -47t65.5 -68.5t24.5 -97q0 -32 -6 -62.5t-24 -65t-46 -59.5 t-78 -41.5t-115 -16.5q-61 0 -118 16t-94.5 39t-67 46.5t-42.5 39.5l-14 16z" />
<glyph unicode="T" horiz-adv-x="1146" d="M61 1262h422v-1262h176v1262h426v172h-1024v-172z" />
<glyph unicode="U" horiz-adv-x="1339" d="M143 709v725h187v-725q0 -76 0.5 -113.5t4.5 -102.5t13 -98t24 -80.5t40.5 -72t60 -50t84 -35.5t111.5 -10t111.5 10t84 35.5t60 50t40.5 72t24 80.5t13 98t4.5 102.5t0.5 113.5v725h190v-725q0 -85 -0.5 -129t-5.5 -119.5t-14 -117t-27 -101.5t-44 -93t-66 -72t-92 -59 t-122.5 -33.5t-156.5 -13.5q-110 0 -194 22.5t-139.5 53.5t-93 94t-57 112t-29 142t-11 148.5t-1.5 165.5z" />
<glyph unicode="V" horiz-adv-x="1275" d="M61 1434l488 -1434h178l487 1434h-180l-391 -1125l-397 1125h-185z" />
<glyph unicode="W" horiz-adv-x="1937" d="M31 1434l426 -1434h178l334 1120l334 -1120h178l426 1434h-181l-329 -1104l-336 1104h-180l-330 -1104l-336 1104h-184z" />
<glyph unicode="X" horiz-adv-x="1144" d="M51 1434l420 -701l-414 -733h199l313 559l312 -559h200l-409 723l422 711h-201l-320 -535l-319 535h-203z" />
<glyph unicode="Y" horiz-adv-x="1191" d="M31 1434l473 -818l2 -616h176v616l469 818h-193l-362 -627l-360 627h-205z" />
<glyph unicode="Z" horiz-adv-x="1155" d="M51 0h1053v178h-832l832 1077v179h-991v-179h778l-840 -1077v-178z" />
<glyph unicode="[" horiz-adv-x="565" d="M82 -410h428v158h-270v1538h270v158h-426z" />
<glyph unicode="\" horiz-adv-x="675" d="M51 1444l395 -1444h179l-398 1444h-176z" />
<glyph unicode="]" horiz-adv-x="618" d="M84 -252h270v1538h-270v158h426l2 -1854h-428v158z" />
<glyph unicode="^" horiz-adv-x="655" d="M61 1024l215 410h109l209 -410h-141l-121 252l-129 -252h-142z" />
<glyph unicode="_" horiz-adv-x="1024" d="M78 0v172h827v-172h-827z" />
<glyph unicode="`" horiz-adv-x="417" d="M31 1530h176l180 -313h-135z" />
<glyph unicode="a" horiz-adv-x="1054" d="M88 295q0 58 20 112t60 100.5t108 74.5t156 28h299v95q0 7 -1 19t-12 42t-30 52.5t-61 41.5t-99 19q-63 0 -122.5 -21.5t-87.5 -43.5l-29 -21l-84 135q4 4 12.5 11t38 25t64 32t91.5 25t119 11q173 0 275 -94.5t102 -220.5v-697q-34 -15 -65 -23.5t-106 -17t-181 -8.5 q-103 0 -182 14.5t-146 49.5t-103 100.5t-36 159.5zM270 295q0 -90 62.5 -124.5t197.5 -37.5q139 0 203 14v295h-311q-76 0 -114 -41t-38 -106z" />
<glyph unicode="b" horiz-adv-x="1153" d="M147 20q56 -22 160.5 -35.5t204.5 -13.5q272 0 405.5 133t133.5 404q0 259 -110.5 391.5t-297.5 132.5q-72 0 -131 -11.5t-92.5 -28.5t-56.5 -34t-31 -28l-8 -12v516h-177v-1414zM324 174v287q0 85 5 141.5t22 110t47 84t80.5 49t123.5 18.5q76 0 129.5 -25.5t83 -73.5 t42.5 -107t13 -136q0 -196 -80 -289.5t-247 -93.5q-165 0 -219 35z" />
<glyph unicode="c" horiz-adv-x="1089" d="M113 508q0 -105 30.5 -200t87.5 -171t149 -121t206 -45q143 0 268 72.5t168 189.5l-152 91q-30 -78 -113 -130.5t-169 -52.5q-76 0 -135.5 32t-94.5 85.5t-53 117t-18 132.5q0 70 18 132t53 112.5t94.5 80t135.5 29.5q90 0 171.5 -47.5t110.5 -128.5l154 76 q-40 120 -166 195t-272 75q-114 0 -206 -43.5t-149.5 -117t-87.5 -166.5t-30 -197z" />
<glyph unicode="d" horiz-adv-x="1153" d="M102 508q0 259 110.5 391.5t297.5 132.5q72 0 131 -11.5t92.5 -28.5t56.5 -34t31 -28l8 -12v516h177v-1414q-56 -22 -160.5 -35.5t-204.5 -13.5q-272 0 -405.5 133t-133.5 404zM283 522q0 -196 80 -289.5t247 -93.5q165 0 219 35v287q0 85 -5 141.5t-22 110t-47 84 t-80.5 49t-123.5 18.5q-76 0 -129.5 -25.5t-83 -73.5t-42.5 -107t-13 -136z" />
<glyph unicode="e" horiz-adv-x="1120" d="M113 506q0 105 28 197.5t82.5 167t144 118t203.5 43.5q153 0 261 -79t157 -214q39 -108 39 -241q0 -32 -2 -66h-731q5 -50 14.5 -90.5t30.5 -79.5t50.5 -66t76 -43t106.5 -16q59 0 109.5 15.5t81 37t52.5 45t31 38t9 16.5l143 -88q1 -1 -6 -13.5t-22 -33t-38 -45t-58 -49 t-77.5 -44.5t-101.5 -32.5t-125 -12.5q-98 0 -176.5 29.5t-130.5 79.5t-86.5 119.5t-49.5 145.5t-15 161zM293 600h561q-3 26 -8.5 52t-24.5 67.5t-47 71.5t-80.5 52.5t-120.5 22.5q-49 0 -90.5 -12t-69 -30t-49.5 -44t-34 -49.5t-20.5 -51.5t-11.5 -45t-5 -34z" />
<glyph unicode="f" horiz-adv-x="768" d="M123 844h143v-844h176v844h203v160h-203v204q0 44 20.5 64t72.5 20q44 0 110 -12v152q-85 22 -178 22q-94 0 -147.5 -64t-53.5 -159v-227h-143v-160z" />
<glyph unicode="g" horiz-adv-x="1163" d="M113 508q0 259 110 391.5t297 132.5q72 0 131 -11.5t92.5 -28.5t57 -34t31.5 -28l8 -12v86h176v-984q0 -15 -0.5 -28.5t-4.5 -48.5t-11.5 -65.5t-23.5 -72t-38 -75t-57 -68.5t-79 -59t-106 -39t-135 -15q-87 0 -154 10.5t-113.5 32t-69 36.5t-54.5 42l109 131 q37 -27 64 -43t86 -31.5t132 -15.5q123 0 194 82.5t79 212.5q-5 -4 -15 -10t-54 -15.5t-101 -9.5q-131 0 -229.5 28t-172 89.5t-111.5 167t-38 252.5zM293 522q0 -42 3 -77.5t12 -76t24.5 -72.5t41.5 -62t62 -50.5t87.5 -32.5t115.5 -12q129 0 201 43v258q0 70 -3.5 121 t-14 102t-30 85.5t-50 62t-76 40.5t-105.5 13q-268 0 -268 -342z" />
<glyph unicode="h" horiz-adv-x="1105" d="M147 0v1434h175v-449q106 47 231 47q209 0 319.5 -81.5t110.5 -268.5v-682h-176v672q0 57 -19.5 97t-57.5 61.5t-84 30.5t-107 9q-99 0 -157 -41t-58 -110v-719h-177z" />
<glyph unicode="i" horiz-adv-x="507" d="M147 1280q0 44 31.5 75t75.5 31t75 -31t31 -75t-31 -75t-75 -31t-75.5 31t-31.5 75zM166 0h176v1004h-176v-1004z" />
<glyph unicode="j" horiz-adv-x="573" d="M-66 -453l27 179q279 0 279 274v1004h176v-1004q0 -35 -2.5 -66t-13.5 -79t-29.5 -87t-55 -82t-86 -72t-125.5 -48t-170 -19zM221 1280q0 44 31.5 75t75.5 31t75 -31t31 -75t-31 -75t-75 -31t-75.5 31t-31.5 75z" />
<glyph unicode="k" horiz-adv-x="1091" d="M147 0v1434h177v-951l434 521h200l-317 -373l406 -631h-191l-326 510l-206 -246v-264h-177z" />
<glyph unicode="l" horiz-adv-x="589" d="M147 195v1239h177v-1215q0 -45 20 -65.5t72 -20.5q55 0 110 10l21 -149q-89 -23 -199 -23q-94 0 -147.5 64.5t-53.5 159.5z" />
<glyph unicode="m" horiz-adv-x="1765" d="M147 0h177v719q0 69 58 110t157 41q61 0 107 -9t84 -30.5t57.5 -61.5t19.5 -97v-672h176v719q0 69 58 110t157 41q61 0 107 -9t84 -30.5t57.5 -61.5t19.5 -97v-672h176v682q0 187 -110.5 268.5t-319.5 81.5q-125 0 -231 -47q-50 -21 -78 -61q-102 108 -350 108 q-125 0 -231 -47v19h-175v-1004z" />
<glyph unicode="n" horiz-adv-x="1105" d="M147 0v1004h175v-19q106 47 231 47q209 0 319.5 -81.5t110.5 -268.5v-682h-176v672q0 57 -19.5 97t-57.5 61.5t-84 30.5t-107 9q-99 0 -157 -41t-58 -110v-719h-177z" />
<glyph unicode="o" horiz-adv-x="1169" d="M113 504q0 104 30.5 197.5t87.5 168t149 118.5t206 44q91 0 168.5 -29t132.5 -79t94 -117.5t57.5 -144t18.5 -158.5t-19 -159.5t-58 -145.5t-94 -118.5t-132 -80t-168 -29.5q-114 0 -206 44.5t-149 119.5t-87.5 169.5t-30.5 199.5zM287 504q0 -69 18 -132.5t53 -117 t94.5 -85.5t135.5 -32t135 32t94 86t52.5 117t17.5 132t-17.5 132t-52.5 115.5t-94 83.5t-135 31t-135.5 -31t-94.5 -83t-53 -115t-18 -133z" />
<glyph unicode="p" horiz-adv-x="1167" d="M147 -410h177v416l35 -10q35 -9 105 -18q44 -5 87 -5q26 0 51 2q449 37 449 533q0 259 -110.5 391.5t-297.5 132.5q-72 0 -131 -11.5t-92.5 -28.5t-56.5 -34t-31 -28l-8 -12v86h-177v-1414zM324 182v258q0 85 5 143.5t22 115.5t47 90.5t81 54t123 20.5q268 0 268 -342 q0 -51 -4 -93t-18 -90t-37.5 -82t-65 -62.5t-97.5 -40.5q-37 -7 -85 -7q-26 0 -54 2q-83 6 -185 33z" />
<glyph unicode="q" horiz-adv-x="1167" d="M117 508q0 259 110 391.5t297 132.5q72 0 131 -11.5t92.5 -28.5t57 -34t31.5 -28l8 -12v86h176v-1414h-176v416l-36 -10q-35 -9 -105 -18q-44 -5 -87 -5q-26 0 -51 2q-448 37 -448 533zM297 522q0 -93 17 -161.5t56 -119t102 -73.5q56 -22 138 -22h18q93 3 216 36v258 q0 70 -3.5 121t-14 102t-30 85.5t-50 62t-76 40.5t-105.5 13q-268 0 -268 -342z" />
<glyph unicode="r" horiz-adv-x="741" d="M147 0v1004h177v-74l4 6l14.5 14.5t24 20.5t36.5 22t48.5 20.5t64.5 15t80 5.5q63 0 115 -14l-52 -143q-14 2 -31 2q-27 0 -59 -5q-68 -9 -117.5 -35.5t-73 -55t-37 -67t-15.5 -59.5t-2 -45v-612h-177z" />
<glyph unicode="s" horiz-adv-x="927" d="M92 121q135 -150 371 -150q174 0 273.5 86t99.5 219q0 80 -30.5 135.5t-79.5 84t-108 47.5t-118.5 32t-108.5 30t-79.5 50.5t-30.5 85.5q0 61 44.5 99.5t125.5 38.5q64 0 120.5 -19.5t124.5 -66.5l84 135q-81 54 -153 80t-170 26q-157 0 -255 -83.5t-98 -217.5 q0 -70 24 -122t63 -81.5t88.5 -52t102 -34t102 -26.5t88.5 -30.5t63 -44.5t24 -70q0 -74 -53 -109.5t-145 -35.5q-156 0 -277 121z" />
<glyph unicode="t" horiz-adv-x="686" d="M72 844v160h143v290h176v-290h203v-160h-203v-625q0 -45 20 -65.5t72 -20.5q56 0 111 10l20 -149q-89 -23 -198 -23q-94 0 -147.5 64.5t-53.5 159.5v649h-143z" />
<glyph unicode="u" horiz-adv-x="1081" d="M139 322q0 -187 110.5 -269t319.5 -82q76 0 141 5t104.5 12.5t68 14.5t39.5 12l12 5v984h-176v-844q-41 -21 -174 -21q-61 0 -107.5 9t-84 31t-57.5 62t-20 97v666h-176v-682z" />
<glyph unicode="v" horiz-adv-x="952" d="M41 1004l307 -1004h256l307 1004h-176l-258 -848l-250 848h-186z" />
<glyph unicode="w" horiz-adv-x="1593" d="M16 1004l308 -1004h258l215 711l213 -711h258l307 1004h-178l-258 -848l-250 848h-178l-258 -848l-250 848h-187z" />
<glyph unicode="x" horiz-adv-x="1005" d="M61 0l340 510l-340 494h199l250 -365l242 365h196l-338 -510l340 -494h-200l-248 365l-240 -365h-201z" />
<glyph unicode="y" horiz-adv-x="956" d="M41 1004h170l270 -850l269 850h165l-292 -928q-31 -89 -59.5 -156.5t-58.5 -121t-56.5 -90.5t-61 -64.5t-65 -43.5t-74.5 -27t-83.5 -15.5t-98.5 -8.5l40 166q72 2 126 27t80.5 58.5t42.5 67t19 56.5l3 23z" />
<glyph unicode="z" horiz-adv-x="1052" d="M82 0v160l668 684h-627v160h848v-160l-656 -684h656v-160h-889z" />
<glyph unicode="{" horiz-adv-x="763" d="M86 457q47 0 81.5 -10t50.5 -24.5t25 -29.5t10 -25l1 -10v-692q0 -34 19 -53t38 -21l19 -2h350v158h-223q-5 0 -13 1.5t-21 14.5t-13 37v596q0 6 -1 15t-8 33t-19 42t-39 33t-64 15v2q37 0 64 14t39 34.5t19 40.5t8 34l1 14v559q0 24 12 37t24 14l11 2h223v158h-350 q-3 0 -8 -0.5t-18.5 -4.5t-23.5 -11t-18 -23t-8 -37v-655q0 -4 -1 -10.5t-10 -24t-25 -30.5t-50.5 -23.5t-81.5 -10.5v-157z" />
<glyph unicode="|" horiz-adv-x="358" d="M90 -410h178v1854h-176z" />
<glyph unicode="}" horiz-adv-x="763" d="M84 -252h223q5 0 13 1.5t21 14.5t13 37v596q0 6 1 15t8 33t19 42t39 33t64 15v2q-37 0 -64 14t-39 34.5t-19 40.5t-8 34l-1 14v559q0 24 -12 37t-24 14l-11 2h-223v158h350q3 0 8 -0.5t18.5 -4.5t23.5 -11t18 -23t8 -37v-655q0 -4 1 -10.5t10 -24t25 -30.5t50.5 -23.5 t81.5 -10.5v-157q-47 0 -81.5 -10t-50.5 -24.5t-25 -29.5t-10 -25l-1 -10v-692q0 -34 -19 -53t-38 -21l-19 -2h-350v158z" />
<glyph unicode="~" horiz-adv-x="964" d="M31 543q84 84 138.5 111.5t125.5 27.5q34 0 73 -10t65.5 -20.5t76.5 -33.5q103 -49 160 -49q45 0 80 18t92 75l92 -93q-84 -84 -138.5 -111.5t-125.5 -27.5q-34 0 -73 10t-67 21t-77 33q-103 49 -160 49q-46 0 -80.5 -17.5t-91.5 -74.5z" />
<glyph unicode="&#xa1;" horiz-adv-x="497" d="M147 944q0 -41 30 -71.5t71 -30.5t71.5 30.5t30.5 71.5t-30.5 70.5t-71.5 29.5t-71 -29.5t-30 -70.5zM160 -410v1129h176v-1129h-176z" />
<glyph unicode="&#xa2;" horiz-adv-x="1017" d="M113 508q0 98 20.5 184t63 159t114.5 120.5t168 60.5v228h137v-228q119 -17 209 -89.5t127 -180.5l-153 -76q-25 67 -72.5 111t-110.5 59v-711q61 17 109 68t74 119l151 -90q-41 -108 -130 -182t-204 -89v-217h-137v217q-95 13 -167 63t-114.5 125.5t-63.5 163t-21 185.5 zM287 508q0 -63 9 -118t29.5 -107t59.5 -88.5t94 -49.5v711q-192 -47 -192 -348z" />
<glyph unicode="&#xa3;" horiz-adv-x="1124" d="M82 672h143v-672h817v184h-628v488h190v159h-190v363q0 45 20 64.5t72 19.5q44 0 110 -12v166q-85 22 -178 22q-96 0 -154.5 -64.5t-58.5 -158.5v-400h-143v-159z" />
<glyph unicode="&#xa4;" horiz-adv-x="782" d="M31 207l106 108q-61 80 -61 187q0 105 61 188l-106 105l67 65l103 -104q86 63 188 63q112 0 193 -63l102 104l66 -65l-105 -105q62 -84 62 -188q0 -102 -64 -189l109 -106l-68 -66l-106 107q-82 -60 -189 -60q-101 0 -184 60l-109 -107zM193 502q0 -87 58.5 -142 t137.5 -55q80 0 140.5 55t60.5 142q0 89 -60.5 144.5t-140.5 55.5q-79 0 -137.5 -55.5t-58.5 -144.5z" />
<glyph unicode="&#xa5;" horiz-adv-x="1191" d="M31 1434l413 -715h-229v-172h289v-115h-289v-172h289l2 -260h176v260h299v172h-299v115h299v172h-240l410 715h-193l-362 -627l-360 627h-205z" />
<glyph unicode="&#xa6;" horiz-adv-x="354" d="M90 362h174v-772h-174v772zM90 672v772h174v-772h-174z" />
<glyph unicode="&#xa7;" horiz-adv-x="1046" d="M80 516q0 -104 26 -190t78 -153t139 -104.5t201 -37.5q230 0 230 -170q0 -59 -43.5 -92.5t-126.5 -36.5q-69 -2 -136.5 16.5t-99.5 37.5l-33 19l-84 -135q5 -4 14 -10t42 -22t70.5 -28t98.5 -22t126 -10q146 0 249 80.5t103 210.5q0 106 -26 164.5t-89 89.5 q148 123 148 393q0 104 -26 190t-78.5 153t-139.5 104.5t-201 37.5q-229 0 -229 170q0 59 43.5 92.5t126.5 36.5q69 2 136 -16.5t99 -37.5l33 -19l84 135q-5 4 -14 10t-42 22t-70 28t-98 22t-126 10q-146 0 -249 -80.5t-103 -210.5q0 -107 26 -165.5t88 -88.5 q-147 -122 -147 -393zM254 516q0 71 13 126.5t42.5 100.5t83.5 69t131 24t131 -24.5t83 -69.5t42 -100t13 -126t-13 -126.5t-43 -100t-84 -68.5t-131 -24t-130.5 24t-83 69.5t-42 100t-12.5 125.5z" />
<glyph unicode="&#xa8;" horiz-adv-x="612" d="M37 1352q0 41 29.5 71.5t70.5 30.5t72 -30.5t31 -71.5t-31 -71t-72 -30t-70.5 30t-29.5 71zM385 1352q0 41 29.5 71.5t70.5 30.5t72 -30.5t31 -71.5t-31 -71t-72 -30t-70.5 30t-29.5 71z" />
<glyph unicode="&#xa9;" horiz-adv-x="1613" d="M70 713q0 150 58 287.5t157 236.5t235.5 158t286.5 59t286.5 -59t235.5 -158t157 -236.5t58 -287.5t-58 -287.5t-157 -237t-235.5 -158.5t-286.5 -59t-286.5 59t-235.5 158.5t-157 237t-58 287.5zM182 713q0 -170 83.5 -315t227.5 -229.5t314 -84.5t314 84.5t227.5 229.5 t83.5 315q0 128 -49.5 244t-133 200t-199.5 134t-243 50t-243 -50t-199.5 -134t-133 -200t-49.5 -244zM406 709q0 -78 13.5 -147.5t44.5 -132t77 -108t114.5 -72t153.5 -26.5q129 0 228 65.5t139 176.5l-140 82q-28 -75 -88.5 -121.5t-136.5 -46.5q-70 0 -120 27.5 t-76.5 76.5t-38 104.5t-11.5 121.5q0 67 11.5 122t38 103.5t76.5 76t120 27.5q78 0 137.5 -43.5t87.5 -120.5l142 70q-37 113 -137.5 181.5t-231.5 68.5q-85 0 -153.5 -26.5t-114.5 -71.5t-77 -107.5t-44.5 -132t-13.5 -147.5z" />
<glyph unicode="&#xaa;" horiz-adv-x="585" d="M27 1010q0 76 52 133t154 57h179v55q0 4 -0.5 11t-7 25t-17.5 31.5t-36.5 24.5t-59.5 11q-37 0 -70 -13t-47 -27l-14 -13l-68 73q2 3 6.5 8t22 18.5t38 23.5t56 18t76.5 8q104 0 165.5 -57t61.5 -133v-430q-83 -17 -211 -17q-62 0 -109.5 8.5t-87.5 29t-61.5 60 t-21.5 95.5zM135 1010q0 -54 37.5 -74.5t118.5 -22.5q74 0 123 9v178h-187q-47 0 -69.5 -25t-22.5 -65z" />
<glyph unicode="&#xab;" horiz-adv-x="1232" d="M20 457v88l619 459v-224l-399 -278l399 -279v-223zM553 457v88l618 459v-224l-399 -278l399 -279v-223z" />
<glyph unicode="&#xac;" horiz-adv-x="1005" d="M51 449v172h903v-418h-172v246h-731z" />
<glyph unicode="&#xad;" horiz-adv-x="868" d="M51 449v172h766v-172h-766z" />
<glyph unicode="&#xae;" horiz-adv-x="1613" d="M70 713q0 150 58 287.5t157 236.5t235.5 158t286.5 59t286.5 -59t235.5 -158t157 -236.5t58 -287.5t-58 -287.5t-157 -237t-235.5 -158.5t-286.5 -59t-286.5 59t-235.5 158.5t-157 237t-58 287.5zM182 713q0 -170 83.5 -315t227.5 -229.5t314 -84.5t314 84.5t227.5 229.5 t83.5 315q0 128 -49.5 244t-133 200t-199.5 134t-243 50t-243 -50t-199.5 -134t-133 -200t-49.5 -244zM541 270v887h311q11 0 22 -0.5t38 -5.5t50 -14t51 -28t47 -44.5t32.5 -67.5t13.5 -94q0 -82 -31 -138t-80 -83l187 -412h-156l-166 381h-182v-381h-137zM678 766h153 q14 0 25 1t35 8t40 19.5t29 39t13 63.5q0 40 -13 69.5t-29.5 43.5t-40 22t-35.5 9t-24 1h-153v-276z" />
<glyph unicode="&#xaf;" horiz-adv-x="970" d="M51 1264v172h869v-172h-869z" />
<glyph unicode="&#xb0;" horiz-adv-x="518" d="M31 1225q0 95 66 162t161 67t162 -67t67 -162t-67 -161.5t-162 -66.5t-161 66.5t-66 161.5zM123 1225q0 -57 39 -96t96 -39q58 0 97.5 39t39.5 96q0 59 -39.5 98t-97.5 39q-57 0 -96 -39.5t-39 -97.5z" />
<glyph unicode="&#xb1;" horiz-adv-x="1024" d="M37 0v172h643v-172h-643zM37 449v172h235v235h172v-235h236v-172h-234l-2 -216h-172v216h-235z" />
<glyph unicode="&#xb2;" horiz-adv-x="505" d="M47 807v82q0 54 31 103t75.5 85t89.5 66.5t78.5 60t36.5 53.5q19 117 -92 117q-51 0 -79.5 -15t-41.5 -56l-79 30q33 121 200 121q92 0 144.5 -57t33.5 -166q-7 -35 -41 -70.5t-76.5 -65.5t-84 -61.5t-67.5 -68.5t-23 -76h297v-82h-402z" />
<glyph unicode="&#xb3;" horiz-adv-x="608" d="M59 788l82 37q11 -55 47 -92t93 -37q73 0 110 47t37 113q0 72 -40 116.5t-126 37.5v90q156 -13 156 147q0 63 -41.5 92t-102.5 29q-56 0 -88.5 -36t-44.5 -91l-82 37q15 73 71.5 123.5t145.5 50.5q116 0 174 -54t58 -153q0 -150 -92 -192q48 -21 75 -71t27 -124 q0 -117 -60 -181.5t-175 -64.5q-89 0 -149.5 51.5t-74.5 124.5z" />
<glyph unicode="&#xb4;" horiz-adv-x="417" d="M31 1217h135l221 313h-176z" />
<glyph unicode="&#xb5;" horiz-adv-x="1081" d="M139 -410h176v424q94 -43 254 -43q102 0 193 7.5t132 14.5l40 7v1004h-176v-850q-61 -15 -174 -15q-61 0 -107.5 9t-84 31t-57.5 62t-20 97v666h-176v-1414z" />
<glyph unicode="&#xb6;" horiz-adv-x="1112" d="M72 1036q0 170 120 284t324 114h524v-1844h-178v1665h-209v-1665h-178v1053q-119 0 -212.5 56.5t-142 145.5t-48.5 191z" />
<glyph unicode="&#xb7;" horiz-adv-x="305" d="M51 621q0 41 30 71.5t71 30.5t71.5 -30.5t30.5 -71.5t-30.5 -71t-71.5 -30t-71 30t-30 71z" />
<glyph unicode="&#xb8;" horiz-adv-x="344" d="M31 -410l145 306h137l-120 -306h-162z" />
<glyph unicode="&#xb9;" horiz-adv-x="327" d="M70 1393l32 -88l52 22v-508h104v615h-104z" />
<glyph unicode="&#xba;" horiz-adv-x="632" d="M51 1139q0 86 26 155t87.5 114.5t152.5 45.5q89 0 150.5 -46t88 -115t26.5 -154q0 -134 -67 -226t-198 -92q-69 0 -121.5 26t-83 71t-46 101t-15.5 120zM156 1139q0 -43 7.5 -79t25 -68.5t50 -51t78.5 -18.5q60 0 98 33.5t51 79t13 104.5q0 92 -37.5 153.5t-124.5 61.5 q-46 0 -78.5 -18t-50 -49.5t-25 -67.5t-7.5 -80z" />
<glyph unicode="&#xbb;" horiz-adv-x="1232" d="M61 0l619 457v108l-619 459v-223l400 -289l-400 -289v-223zM594 0l618 457v108l-618 459v-223l399 -289l-399 -289v-223z" />
<glyph unicode="&#xbc;" horiz-adv-x="1312" d="M31 0l991 1444h176l-989 -1444h-178zM147 1403l25 -68l39 17v-478h80v560h-80zM823 2v80l260 629h105l-256 -617h190v275h101v-275h53v-92h-53v-131h-101v131h-299z" />
<glyph unicode="&#xbd;" horiz-adv-x="1329" d="M31 0l991 1444h176l-989 -1444h-178zM147 1403l25 -68l39 17v-478h80v560h-80zM866 0v80q0 45 22 86.5t54.5 72t71.5 60.5t72.5 52.5t57.5 46.5t27 44q19 115 -90 115q-50 0 -77.5 -15.5t-40.5 -56.5l-78 31q33 119 196 119q90 0 141.5 -55.5t32.5 -161.5 q-6 -35 -39.5 -70t-75 -64.5t-82 -60t-66.5 -67.5t-23 -76h291v-80h-394z" />
<glyph unicode="&#xbe;" horiz-adv-x="1536" d="M106 793l82 36q13 -55 48 -92t90 -37q73 0 110 47t37 113q0 72 -40 115.5t-126 36.5v90q156 -10 156 147q0 63 -41 92t-103 29q-100 0 -131 -127l-82 37q14 74 71 124t145 50q117 0 175 -53.5t58 -153.5q0 -147 -94 -190q48 -21 76 -72t28 -123q0 -116 -61 -180t-176 -64 q-88 0 -148 51t-74 124zM254 0l991 1444h176l-989 -1444h-178zM987 2v80l260 629h105l-256 -617h190v275h100v-275h54v-92h-54v-131h-100v131h-299z" />
<glyph unicode="&#xbf;" horiz-adv-x="847" d="M41.5 -75q-1.5 -34 5.5 -74.5t22 -78t44.5 -73t71 -61.5t104.5 -42t141 -16q322 0 387 234l-172 80q-47 -144 -215 -144q-38 0 -73 9.5t-68 31t-49 65.5t-7 105q5 39 28 82t55 85t69 88.5t72 100.5t63.5 112.5t43.5 133.5t11 156h-186q4 -81 -9.5 -150t-39.5 -119 t-58.5 -93.5t-68.5 -84t-68 -80t-58.5 -92t-37.5 -110.5q-6 -31 -7.5 -65zM381 944q0 41 30.5 70.5t71.5 29.5t71 -29.5t30 -70.5t-30 -71.5t-71 -30.5t-71.5 30.5t-30.5 71.5z" />
<glyph unicode="&#xc0;" d="M61 0l488 1434h160l487 -1434h-180l-144 406h-491l-143 -406h-177zM334 1837h176l180 -313h-135zM426 569h403l-200 598z" />
<glyph unicode="&#xc1;" d="M61 0l488 1434h160l487 -1434h-180l-144 406h-491l-143 -406h-177zM426 569h403l-200 598zM578 1524h135l221 313h-176z" />
<glyph unicode="&#xc2;" d="M61 0l488 1434h160l487 -1434h-180l-144 406h-491l-143 -406h-177zM360 1495l215 410h109l209 -410h-141l-121 252l-129 -252h-142zM426 569h403l-200 598z" />
<glyph unicode="&#xc3;" d="M61 0l488 1434h160l487 -1434h-180l-144 406h-491l-143 -406h-177zM180 1620q84 84 138.5 111.5t125.5 27.5q49 0 96 -15.5t119 -47.5q103 -49 160 -49q46 0 80.5 17.5t91.5 74.5l92 -92q-84 -84 -138.5 -112t-125.5 -28q-34 0 -73 10t-67 21t-77 33q-103 49 -160 49 q-46 0 -80.5 -17.5t-91.5 -74.5zM426 569h403l-200 598z" />
<glyph unicode="&#xc4;" d="M61 0l488 1434h160l487 -1434h-180l-144 406h-491l-143 -406h-177zM356 1614q0 41 30 71.5t71 30.5t71.5 -30.5t30.5 -71.5t-30.5 -71t-71.5 -30t-71 30t-30 71zM426 569h403l-200 598zM705 1614q0 41 29.5 71.5t70.5 30.5t71.5 -30.5t30.5 -71.5t-30.5 -71t-71.5 -30 t-70.5 30t-29.5 71z" />
<glyph unicode="&#xc5;" d="M61 0l471 1374q-59 28 -95 83.5t-36 123.5q0 95 66.5 162t161.5 67t162 -67t67 -162q0 -68 -36 -123.5t-95 -83.5l469 -1374h-180l-144 406h-491l-143 -406h-177zM426 569h403l-200 598zM502 1581q0 -58 38.5 -92.5t88.5 -34.5q51 0 90 34.5t39 92.5q0 60 -39 94.5 t-90 34.5q-50 0 -88.5 -35t-38.5 -94z" />
<glyph unicode="&#xc6;" horiz-adv-x="1802" d="M51 0l836 1434h833v-179h-641v-454h523v-183h-523v-440h641v-178h-817v406h-409l-246 -406h-197zM582 569h321l4 557z" />
<glyph unicode="&#xc7;" horiz-adv-x="1341" d="M113 717q0 118 19.5 223t65 200.5t113 164t170.5 109t232 40.5q221 0 365 -106t202 -287l-174 -88q-42 137 -143.5 221t-249.5 84q-86 0 -156 -32.5t-117.5 -86.5t-79.5 -127t-46.5 -152t-14.5 -163t14.5 -164t46.5 -154t79.5 -129.5t117.5 -89t156 -33.5 q148 0 249.5 84.5t143.5 221.5l174 -88q-58 -181 -202 -287.5t-365 -106.5q-129 0 -232 41.5t-170.5 111t-113 166.5t-65 203t-19.5 224zM481 -410l146 306h137l-121 -306h-162z" />
<glyph unicode="&#xc8;" horiz-adv-x="1046" d="M147 0h818v184h-629v434h510v185h-510v446h629v185h-818v-1434zM297 1837h176l180 -313h-135z" />
<glyph unicode="&#xc9;" horiz-adv-x="1046" d="M147 0h818v184h-629v434h510v185h-510v446h629v185h-818v-1434zM461 1524h135l221 313h-176z" />
<glyph unicode="&#xca;" horiz-adv-x="1046" d="M147 0h818v184h-629v434h510v185h-510v446h629v185h-818v-1434zM283 1495l215 410h108l209 -410h-141l-121 252l-129 -252h-141z" />
<glyph unicode="&#xcb;" horiz-adv-x="1046" d="M147 0h818v184h-629v434h510v185h-510v446h629v185h-818v-1434zM279 1614q0 41 29.5 71.5t70.5 30.5t71.5 -30.5t30.5 -71.5t-30.5 -71t-71.5 -30t-70.5 30t-29.5 71zM627 1614q0 41 29.5 71.5t70.5 30.5t71.5 -30.5t30.5 -71.5t-30.5 -71t-71.5 -30t-70.5 30t-29.5 71z " />
<glyph unicode="&#xcc;" horiz-adv-x="485" d="M-51 1837h176l180 -313h-135zM150 0h188v1434h-188v-1434z" />
<glyph unicode="&#xcd;" horiz-adv-x="477" d="M147 0h189v1434h-189v-1434zM172 1524h135l221 313h-176z" />
<glyph unicode="&#xce;" horiz-adv-x="737" d="M102 1495l215 410h109l209 -410h-141l-121 252l-129 -252h-142zM283 0h188v1434h-188v-1434z" />
<glyph unicode="&#xcf;" horiz-adv-x="796" d="M123 1614q0 41 29.5 71.5t70.5 30.5t72 -30.5t31 -71.5t-31 -71t-72 -30t-70.5 30t-29.5 71zM301 0h188v1434h-188v-1434zM471 1614q0 41 29.5 71.5t70.5 30.5t72 -30.5t31 -71.5t-31 -71t-72 -30t-70.5 30t-29.5 71z" />
<glyph unicode="&#xd0;" horiz-adv-x="1380" d="M147 0v1434h570q56 0 109 -7.5t113.5 -28.5t112 -54.5t100 -89.5t82.5 -128.5t54.5 -177.5t20.5 -231t-20.5 -231t-54.5 -177.5t-82.5 -128.5t-100 -89.5t-112 -54.5t-113.5 -28.5t-109 -7.5h-570zM336 184h381q68 0 125.5 18t96.5 49t70.5 71t49.5 84.5t31 88.5t17.5 84 t7 71t1.5 49v18q-2 1 0.5 18.5t-2 49t-8 70.5t-17.5 83.5t-31 88.5t-49 84t-70.5 71t-96 49t-125.5 18h-381v-446h510v-185h-510v-434z" />
<glyph unicode="&#xd1;" horiz-adv-x="1347" d="M147 0h189v1087l676 -1087h188v1434h-188v-1082l-676 1082h-189v-1434zM205 1620q84 84 138.5 111.5t125.5 27.5q49 0 96 -15.5t119 -47.5q103 -49 160 -49q46 0 80.5 17.5t91.5 74.5l92 -92q-84 -84 -138.5 -112t-125.5 -28q-34 0 -73 10t-67 21t-77 33q-103 49 -160 49 q-46 0 -80.5 -17.5t-91.5 -74.5z" />
<glyph unicode="&#xd2;" horiz-adv-x="1441" d="M113 717q0 118 19.5 223t65 200.5t113 164t170.5 109t232 40.5q128 0 232 -40.5t174.5 -109.5t118.5 -164t69.5 -200.5t21.5 -222.5q0 -118 -22 -225t-70 -202.5t-118.5 -165t-174.5 -110.5t-231 -41q-129 0 -232 40.5t-170.5 110t-113 165.5t-65 202t-19.5 226zM299 717 q0 -84 14.5 -163t46.5 -153t79.5 -129.5t118 -88.5t155.5 -33q86 0 159 33.5t122.5 89t84.5 129t51.5 153.5t16.5 162t-16.5 161.5t-51.5 152t-85 127.5t-122.5 87.5t-158.5 32.5t-156 -32.5t-117.5 -86.5t-79.5 -127t-46.5 -152t-14.5 -163zM442 1837h176l181 -313h-135z " />
<glyph unicode="&#xd3;" horiz-adv-x="1441" d="M113 717q0 118 19.5 223t65 200.5t113 164t170.5 109t232 40.5q128 0 232 -40.5t174.5 -109.5t118.5 -164t69.5 -200.5t21.5 -222.5q0 -118 -22 -225t-70 -202.5t-118.5 -165t-174.5 -110.5t-231 -41q-129 0 -232 40.5t-170.5 110t-113 165.5t-65 202t-19.5 226zM299 717 q0 -84 14.5 -163t46.5 -153t79.5 -129.5t118 -88.5t155.5 -33q86 0 159 33.5t122.5 89t84.5 129t51.5 153.5t16.5 162t-16.5 161.5t-51.5 152t-85 127.5t-122.5 87.5t-158.5 32.5t-156 -32.5t-117.5 -86.5t-79.5 -127t-46.5 -152t-14.5 -163zM606 1524h135l222 313h-177z " />
<glyph unicode="&#xd4;" horiz-adv-x="1441" d="M113 717q0 118 19.5 223t65 200.5t113 164t170.5 109t232 40.5q128 0 232 -40.5t174.5 -109.5t118.5 -164t69.5 -200.5t21.5 -222.5q0 -118 -22 -225t-70 -202.5t-118.5 -165t-174.5 -110.5t-231 -41q-129 0 -232 40.5t-170.5 110t-113 165.5t-65 202t-19.5 226zM299 717 q0 -84 14.5 -163t46.5 -153t79.5 -129.5t118 -88.5t155.5 -33q86 0 159 33.5t122.5 89t84.5 129t51.5 153.5t16.5 162t-16.5 161.5t-51.5 152t-85 127.5t-122.5 87.5t-158.5 32.5t-156 -32.5t-117.5 -86.5t-79.5 -127t-46.5 -152t-14.5 -163zM442 1495l215 410h109l209 -410 h-141l-121 252l-129 -252h-142z" />
<glyph unicode="&#xd5;" horiz-adv-x="1441" d="M113 717q0 118 19.5 223t65 200.5t113 164t170.5 109t232 40.5q128 0 232 -40.5t174.5 -109.5t118.5 -164t69.5 -200.5t21.5 -222.5q0 -118 -22 -225t-70 -202.5t-118.5 -165t-174.5 -110.5t-231 -41q-129 0 -232 40.5t-170.5 110t-113 165.5t-65 202t-19.5 226z M260 1620q84 84 138.5 111.5t125.5 27.5q49 0 96 -15.5t119 -47.5q103 -49 160 -49q46 0 80.5 17.5t91.5 74.5l92 -92q-84 -84 -138.5 -112t-125.5 -28q-34 0 -73 10t-67 21t-77 33q-103 49 -160 49q-46 0 -80.5 -17.5t-91.5 -74.5zM299 717q0 -84 14.5 -163t46.5 -153 t79.5 -129.5t118 -88.5t155.5 -33q86 0 159 33.5t122.5 89t84.5 129t51.5 153.5t16.5 162t-16.5 161.5t-51.5 152t-85 127.5t-122.5 87.5t-158.5 32.5t-156 -32.5t-117.5 -86.5t-79.5 -127t-46.5 -152t-14.5 -163z" />
<glyph unicode="&#xd6;" horiz-adv-x="1441" d="M113 717q0 118 19.5 223t65 200.5t113 164t170.5 109t232 40.5q128 0 232 -40.5t174.5 -109.5t118.5 -164t69.5 -200.5t21.5 -222.5q0 -118 -22 -225t-70 -202.5t-118.5 -165t-174.5 -110.5t-231 -41q-129 0 -232 40.5t-170.5 110t-113 165.5t-65 202t-19.5 226zM299 717 q0 -84 14.5 -163t46.5 -153t79.5 -129.5t118 -88.5t155.5 -33q86 0 159 33.5t122.5 89t84.5 129t51.5 153.5t16.5 162t-16.5 161.5t-51.5 152t-85 127.5t-122.5 87.5t-158.5 32.5t-156 -32.5t-117.5 -86.5t-79.5 -127t-46.5 -152t-14.5 -163zM434 1614q0 41 30 71.5t71 30.5 t71.5 -30.5t30.5 -71.5t-30.5 -71t-71.5 -30t-71 30t-30 71zM782 1614q0 41 30 71.5t71 30.5t71.5 -30.5t30.5 -71.5t-30.5 -71t-71.5 -30t-71 30t-30 71z" />
<glyph unicode="&#xd7;" horiz-adv-x="765" d="M51 324l211 211l-211 210l121 121l211 -211l211 211l121 -121l-211 -210l211 -211l-121 -121l-209 209l-213 -209z" />
<glyph unicode="&#xd8;" horiz-adv-x="1359" d="M72 713q0 118 19.5 223.5t65 201.5t113 165t170.5 110t232 41q208 0 350 -104l68 94h176l-133 -197q155 -194 155 -534q0 -118 -22 -224.5t-70 -202t-118.5 -165t-174.5 -110t-231 -40.5q-204 0 -342 99l-54 -70h-178l123 182q-149 193 -149 531zM258 713q0 -204 84 -357 l573 836q-102 86 -243 86q-86 0 -156 -33t-117.5 -87.5t-79.5 -128t-46.5 -153t-14.5 -163.5zM440 236q96 -80 232 -80q86 0 158.5 32.5t122.5 86.5t85 126t51.5 151t16.5 161q0 212 -92 364z" />
<glyph unicode="&#xd9;" horiz-adv-x="1339" d="M143 709v725h187v-725q0 -76 0.5 -113.5t4.5 -102.5t13 -98t24 -80.5t40.5 -72t60 -50t84 -35.5t111.5 -10t111.5 10t84 35.5t60 50t40.5 72t24 80.5t13 98t4.5 102.5t0.5 113.5v725h190v-725q0 -85 -0.5 -129t-5.5 -119.5t-14 -117t-27 -101.5t-44 -93t-66 -72t-92 -59 t-122.5 -33.5t-156.5 -13.5q-110 0 -194 22.5t-139.5 53.5t-93 94t-57 112t-29 142t-11 148.5t-1.5 165.5zM391 1837h176l181 -313h-136z" />
<glyph unicode="&#xda;" horiz-adv-x="1339" d="M143 709v725h187v-725q0 -76 0.5 -113.5t4.5 -102.5t13 -98t24 -80.5t40.5 -72t60 -50t84 -35.5t111.5 -10t111.5 10t84 35.5t60 50t40.5 72t24 80.5t13 98t4.5 102.5t0.5 113.5v725h190v-725q0 -85 -0.5 -129t-5.5 -119.5t-14 -117t-27 -101.5t-44 -93t-66 -72t-92 -59 t-122.5 -33.5t-156.5 -13.5q-110 0 -194 22.5t-139.5 53.5t-93 94t-57 112t-29 142t-11 148.5t-1.5 165.5zM588 1524h135l221 313h-176z" />
<glyph unicode="&#xdb;" horiz-adv-x="1339" d="M143 709v725h187v-725q0 -76 0.5 -113.5t4.5 -102.5t13 -98t24 -80.5t40.5 -72t60 -50t84 -35.5t111.5 -10t111.5 10t84 35.5t60 50t40.5 72t24 80.5t13 98t4.5 102.5t0.5 113.5v725h190v-725q0 -85 -0.5 -129t-5.5 -119.5t-14 -117t-27 -101.5t-44 -93t-66 -72t-92 -59 t-122.5 -33.5t-156.5 -13.5q-110 0 -194 22.5t-139.5 53.5t-93 94t-57 112t-29 142t-11 148.5t-1.5 165.5zM389 1495l215 410h109l209 -410h-142l-121 252l-129 -252h-141z" />
<glyph unicode="&#xdc;" horiz-adv-x="1339" d="M143 709v725h187v-725q0 -76 0.5 -113.5t4.5 -102.5t13 -98t24 -80.5t40.5 -72t60 -50t84 -35.5t111.5 -10t111.5 10t84 35.5t60 50t40.5 72t24 80.5t13 98t4.5 102.5t0.5 113.5v725h190v-725q0 -85 -0.5 -129t-5.5 -119.5t-14 -117t-27 -101.5t-44 -93t-66 -72t-92 -59 t-122.5 -33.5t-156.5 -13.5q-110 0 -194 22.5t-139.5 53.5t-93 94t-57 112t-29 142t-11 148.5t-1.5 165.5zM385 1614q0 41 29.5 71.5t70.5 30.5t72 -30.5t31 -71.5t-31 -71t-72 -30t-70.5 30t-29.5 71zM733 1614q0 41 30 71.5t71 30.5t71.5 -30.5t30.5 -71.5t-30.5 -71 t-71.5 -30t-71 30t-30 71z" />
<glyph unicode="&#xdd;" horiz-adv-x="1191" d="M31 1434l473 -818l2 -616h176v616l469 818h-193l-360 -627l-362 627h-205zM543 1524h135l221 313h-176z" />
<glyph unicode="&#xde;" horiz-adv-x="1062" d="M90 0v1434h176v-318h314q9 0 23.5 -1t57.5 -9t81.5 -22t86 -44.5t81.5 -72.5t57.5 -110t23.5 -152q0 -65 -14 -120.5t-38 -94.5t-54.5 -70.5t-65 -51t-68.5 -34t-64.5 -21t-54.5 -10t-38 -3.5l-14 -1h-314v-299h-176zM266 473h314q9 0 24.5 2t55 15.5t69.5 34.5t55 66 t25 105q0 65 -23.5 114t-57.5 73.5t-67.5 39.5t-56.5 18l-24 3h-314v-471z" />
<glyph unicode="&#xdf;" horiz-adv-x="1064" d="M90 0v983q0 41 0.5 64t4 67.5t10 71.5t20.5 67t33 65t49.5 53.5t69 44.5t92.5 27t118 11q102 0 181 -27t124 -71.5t72 -99t30.5 -111.5t-5 -108t-30.5 -89.5t-50 -54.5q90 -57 137 -159t47 -267q0 -266 -130 -381t-408 -115l30 168q173 0 250.5 75.5t77.5 266.5 q0 153 -59 227t-209 74q-24 0 -64 -4l-2 164q70 -1 120.5 13.5t76 33.5t40 48.5t17 48.5t2.5 44q0 32 -11.5 60.5t-38 55t-79 42t-125.5 15.5q-35 0 -64 -7.5t-50 -18t-37.5 -30t-27 -36.5t-17.5 -44t-11 -45t-6 -48.5t-2 -46v-44.5v-983h-176z" />
<glyph unicode="&#xe0;" horiz-adv-x="1054" d="M88 295q0 58 20 112t60 100.5t108 74.5t156 28h299v95q0 7 -1 19t-12 42t-30 52.5t-61 41.5t-99 19q-63 0 -122.5 -21.5t-87.5 -43.5l-29 -21l-84 135q4 4 12.5 11t38 25t64 32t91.5 25t119 11q173 0 275 -94.5t102 -220.5v-697q-34 -15 -65 -23.5t-106 -17t-181 -8.5 q-103 0 -182 14.5t-146 49.5t-103 100.5t-36 159.5zM254 1530h176l180 -313h-135zM270 295q0 -90 62.5 -124.5t197.5 -37.5q139 0 203 14v295h-311q-76 0 -114 -41t-38 -106z" />
<glyph unicode="&#xe1;" horiz-adv-x="1054" d="M88 295q0 58 20 112t60 100.5t108 74.5t156 28h299v95q0 7 -1 19t-12 42t-30 52.5t-61 41.5t-99 19q-63 0 -122.5 -21.5t-87.5 -43.5l-29 -21l-84 135q4 4 12.5 11t38 25t64 32t91.5 25t119 11q173 0 275 -94.5t102 -220.5v-697q-34 -15 -65 -23.5t-106 -17t-181 -8.5 q-103 0 -182 14.5t-146 49.5t-103 100.5t-36 159.5zM270 295q0 -90 62.5 -124.5t197.5 -37.5q139 0 203 14v295h-311q-76 0 -114 -41t-38 -106zM479 1217h135l222 313h-177z" />
<glyph unicode="&#xe2;" horiz-adv-x="1054" d="M88 295q0 58 20 112t60 100.5t108 74.5t156 28h299v95q0 7 -1 19t-12 42t-30 52.5t-61 41.5t-99 19q-63 0 -122.5 -21.5t-87.5 -43.5l-29 -21l-84 135q4 4 12.5 11t38 25t64 32t91.5 25t119 11q173 0 275 -94.5t102 -220.5v-697q-34 -15 -65 -23.5t-106 -17t-181 -8.5 q-103 0 -182 14.5t-146 49.5t-103 100.5t-36 159.5zM270 295q0 -90 62.5 -124.5t197.5 -37.5q139 0 203 14v295h-311q-76 0 -114 -41t-38 -106zM289 1217l215 409h108l209 -409h-141l-121 251l-129 -251h-141z" />
<glyph unicode="&#xe3;" horiz-adv-x="991" d="M55 295q0 58 20 112t60 100.5t108 74.5t156 28h299v95q0 7 -1 19t-11.5 42t-29.5 52.5t-61 41.5t-99 19q-63 0 -123 -21.5t-89 -43.5l-28 -21l-84 135q4 4 12.5 11t38 25t64 32t92 25t119.5 11q173 0 274.5 -94.5t101.5 -220.5v-697q-34 -15 -65 -23.5t-106 -17 t-181 -8.5q-103 0 -182 14.5t-146 49.5t-103 100.5t-36 159.5zM78 1217q84 84 138.5 111.5t125.5 27.5q34 0 73 -10t65.5 -20.5t76.5 -33.5q103 -49 160 -49q46 0 80.5 17.5t91.5 74.5l92 -92q-84 -84 -138.5 -111.5t-125.5 -27.5q-77 0 -217 63q-38 18 -56.5 26t-48 16 t-55.5 8q-45 0 -80 -18t-92 -75zM238 295q0 -90 62.5 -124.5t197.5 -37.5q138 0 202 14v295h-311q-76 0 -113.5 -40.5t-37.5 -106.5z" />
<glyph unicode="&#xe4;" horiz-adv-x="1054" d="M88 295q0 58 20 112t60 100.5t108 74.5t156 28h299v95q0 7 -1 19t-12 42t-30 52.5t-61 41.5t-99 19q-63 0 -122.5 -21.5t-87.5 -43.5l-29 -21l-84 135q4 4 12.5 11t38 25t64 32t91.5 25t119 11q173 0 275 -94.5t102 -220.5v-697q-34 -15 -65 -23.5t-106 -17t-181 -8.5 q-103 0 -182 14.5t-146 49.5t-103 100.5t-36 159.5zM270 295q0 -90 62.5 -124.5t197.5 -37.5q139 0 203 14v295h-311q-76 0 -114 -41t-38 -106zM289 1319q0 41 29.5 71.5t70.5 30.5t72 -30.5t31 -71.5t-30.5 -70.5t-72.5 -29.5q-41 0 -70.5 29.5t-29.5 70.5zM637 1319 q0 41 29.5 71.5t70.5 30.5t72 -30.5t31 -71.5t-30.5 -70.5t-72.5 -29.5q-41 0 -70.5 29.5t-29.5 70.5z" />
<glyph unicode="&#xe5;" horiz-adv-x="1054" d="M88 295q0 58 20 112t60 100.5t108 74.5t156 28h299v95q0 7 -1 19t-12 42t-30 52.5t-61 41.5t-99 19q-63 0 -122.5 -21.5t-87.5 -43.5l-29 -21l-84 135q4 4 12.5 11t38 25t64 32t91.5 25t119 11q173 0 275 -94.5t102 -220.5v-697q-34 -15 -65 -23.5t-106 -17t-181 -8.5 q-103 0 -182 14.5t-146 49.5t-103 100.5t-36 159.5zM270 295q0 -90 62.5 -124.5t197.5 -37.5q139 0 203 14v295h-311q-76 0 -114 -41t-38 -106zM330 1315q0 95 66 162t161 67t162 -67t67 -162t-67 -161.5t-162 -66.5t-161 66.5t-66 161.5zM410 1315q0 -62 43 -105t104 -43 q63 0 106.5 43t43.5 105q0 63 -43.5 106t-106.5 43q-62 0 -104.5 -43t-42.5 -106z" />
<glyph unicode="&#xe6;" horiz-adv-x="1609" d="M47 295q0 58 20 112t60 100.5t108 74.5t156 28h299v95q0 7 -1 18.5t-12 40.5t-30 51t-61 40.5t-99 18.5q-62 0 -116 -22.5t-77 -45.5l-24 -22l-114 125q4 5 11.5 13.5t36 30t63 38t94.5 30t128 13.5q105 0 185.5 -37t128.5 -100q53 64 139 99.5t193 35.5q153 0 258.5 -79 t151.5 -213.5t34 -307.5h-711q6 -61 23 -111.5t47.5 -93t81.5 -66.5t117 -24q53 0 100 15.5t77 37.5t52.5 45t32.5 37.5t10 16.5l143 -88q1 -1 -13 -24.5t-47 -57.5t-79 -67.5t-120 -57t-158 -23.5q-163 0 -269 82v-53q-149 -29 -352 -29q-103 0 -182 14.5t-146 49.5 t-103 100.5t-36 159.5zM229 295q0 -90 62.5 -124.5t197.5 -37.5q139 0 203 14v295h-311q-76 0 -114 -41t-38 -106zM866 610h541q-2 24 -9 50.5t-26 65t-46.5 68t-77 51t-111.5 21.5t-111.5 -21.5t-77 -51t-47 -67.5t-26.5 -65.5t-9 -50.5z" />
<glyph unicode="&#xe7;" horiz-adv-x="956" d="M31 508q0 -105 30.5 -200t87.5 -171t149 -121t206 -45q143 0 268 72.5t168 189.5l-152 91q-30 -78 -113 -130.5t-169 -52.5q-76 0 -135.5 32t-94.5 85.5t-53 117t-18 132.5q0 70 18 132t53 112.5t94.5 80t135.5 29.5q90 0 171.5 -47.5t110.5 -128.5l154 76 q-40 120 -166 195t-272 75q-114 0 -206 -43.5t-149.5 -117t-87.5 -166.5t-30 -197zM297 -410l145 306h138l-121 -306h-162z" />
<glyph unicode="&#xe8;" horiz-adv-x="1120" d="M113 506q0 105 28 197.5t82.5 167t144 118t203.5 43.5q153 0 261 -79t157 -214t37 -307h-731q5 -50 14.5 -90.5t30.5 -79.5t50.5 -66t76 -43t106.5 -16q59 0 109.5 15.5t81 37t52.5 45t31 38t9 16.5l143 -88q1 -1 -6 -13.5t-22 -33t-38 -45t-58 -49t-77.5 -44.5 t-101.5 -32.5t-125 -12.5q-98 0 -176.5 29.5t-130.5 79.5t-86.5 119.5t-49.5 145.5t-15 161zM293 600h561q-3 26 -8.5 52t-24.5 67.5t-47 71.5t-80.5 52.5t-120.5 22.5q-49 0 -90.5 -12t-69 -30t-49.5 -44t-34 -49.5t-20.5 -51.5t-11.5 -45t-5 -34zM295 1530h176l180 -313 h-135z" />
<glyph unicode="&#xe9;" horiz-adv-x="1120" d="M113 506q0 105 28 197.5t82.5 167t144 118t203.5 43.5q153 0 261 -79t157 -214t37 -307h-731q5 -50 14.5 -90.5t30.5 -79.5t50.5 -66t76 -43t106.5 -16q59 0 109.5 15.5t81 37t52.5 45t31 38t9 16.5l143 -88q1 -1 -6 -13.5t-22 -33t-38 -45t-58 -49t-77.5 -44.5 t-101.5 -32.5t-125 -12.5q-98 0 -176.5 29.5t-130.5 79.5t-86.5 119.5t-49.5 145.5t-15 161zM293 600h561q-3 26 -8.5 52t-24.5 67.5t-47 71.5t-80.5 52.5t-120.5 22.5q-49 0 -90.5 -12t-69 -30t-49.5 -44t-34 -49.5t-20.5 -51.5t-11.5 -45t-5 -34zM520 1217h135l222 313 h-177z" />
<glyph unicode="&#xea;" horiz-adv-x="1120" d="M113 506q0 105 28 197.5t82.5 167t144 118t203.5 43.5q153 0 261 -79t157 -214t37 -307h-731q5 -50 14.5 -90.5t30.5 -79.5t50.5 -66t76 -43t106.5 -16q59 0 109.5 15.5t81 37t52.5 45t31 38t9 16.5l143 -88q1 -1 -6 -13.5t-22 -33t-38 -45t-58 -49t-77.5 -44.5 t-101.5 -32.5t-125 -12.5q-98 0 -176.5 29.5t-130.5 79.5t-86.5 119.5t-49.5 145.5t-15 161zM293 600h561q-3 26 -8.5 52t-24.5 67.5t-47 71.5t-80.5 52.5t-120.5 22.5q-49 0 -90.5 -12t-69 -30t-49.5 -44t-34 -49.5t-20.5 -51.5t-11.5 -45t-5 -34zM309 1217l215 409h109 l209 -409h-142l-120 251l-129 -251h-142z" />
<glyph unicode="&#xeb;" horiz-adv-x="1120" d="M113 506q0 105 28 197.5t82.5 167t144 118t203.5 43.5q153 0 261 -79t157 -214t37 -307h-731q5 -50 14.5 -90.5t30.5 -79.5t50.5 -66t76 -43t106.5 -16q59 0 109.5 15.5t81 37t52.5 45t31 38t9 16.5l143 -88q1 -1 -6 -13.5t-22 -33t-38 -45t-58 -49t-77.5 -44.5 t-101.5 -32.5t-125 -12.5q-98 0 -176.5 29.5t-130.5 79.5t-86.5 119.5t-49.5 145.5t-15 161zM293 600h561q-3 26 -8.5 52t-24.5 67.5t-47 71.5t-80.5 52.5t-120.5 22.5q-49 0 -90.5 -12t-69 -30t-49.5 -44t-34 -49.5t-20.5 -51.5t-11.5 -45t-5 -34zM309 1319q0 41 30 71.5 t71 30.5t71.5 -30.5t30.5 -71.5t-30.5 -70.5t-71.5 -29.5t-71 29.5t-30 70.5zM657 1319q0 41 30 71.5t71 30.5t71.5 -30.5t30.5 -71.5t-30.5 -70.5t-71.5 -29.5t-71 29.5t-30 70.5z" />
<glyph unicode="&#xec;" horiz-adv-x="391" d="M-74 1530h176l181 -313h-136zM125 0h176v1004h-176v-1004z" />
<glyph unicode="&#xed;" horiz-adv-x="399" d="M117 1217h135l221 313h-176zM125 0h176v1004h-176v-1004z" />
<glyph unicode="&#xee;" horiz-adv-x="421" d="M-55 1217l215 409h108l209 -409h-141l-121 251l-129 -251h-141zM125 0h176v1004h-176v-1004z" />
<glyph unicode="&#xef;" horiz-adv-x="432" d="M-59 1319q0 41 29.5 71.5t70.5 30.5t71.5 -30.5t30.5 -71.5t-30.5 -70.5t-71.5 -29.5t-70.5 29.5t-29.5 70.5zM125 0h176v1004h-176v-1004zM289 1319q0 41 29.5 71.5t70.5 30.5t72 -30.5t31 -71.5t-30.5 -70.5t-72.5 -29.5q-41 0 -70.5 29.5t-29.5 70.5z" />
<glyph unicode="&#xf0;" horiz-adv-x="1026" d="M51 504q0 83 16.5 159.5t52.5 144.5t88 118t128 79t168 29q48 0 86 -6l-82 131h-238v107h181l-97 168h174l97 -168h209v-107h-152l168 -285q104 -162 104 -370q0 -105 -27.5 -198.5t-80.5 -169.5t-141 -120.5t-201 -44.5q-114 0 -203 44.5t-142.5 120t-80.5 169 t-27 199.5zM225 504q0 -71 15 -133t46 -116.5t87.5 -86t132.5 -31.5t132 32t86.5 86.5t45 116.5t14.5 132q0 71 -14.5 132.5t-45 115.5t-86.5 85t-132 31t-132.5 -31t-87.5 -84t-46 -115.5t-15 -133.5z" />
<glyph unicode="&#xf1;" horiz-adv-x="1038" d="M49 1217q84 84 138.5 111.5t125.5 27.5q34 0 73 -10t65.5 -20.5t76.5 -33.5q103 -49 160 -49q46 0 80.5 17.5t91.5 74.5l92 -92q-84 -84 -138.5 -111.5t-125.5 -27.5q-77 0 -217 63q-38 18 -56.5 26t-48 16t-55.5 8q-45 0 -80 -18t-92 -75zM106 0v1004h175v-19 q106 47 231 47q209 0 319.5 -81.5t110.5 -268.5v-682h-176v672q0 57 -19.5 97t-57.5 61.5t-84 30.5t-107 9q-99 0 -157 -41t-58 -110v-719h-177z" />
<glyph unicode="&#xf2;" horiz-adv-x="1026" d="M51 504q0 104 30.5 197.5t87.5 168t149 118.5t206 44q91 0 168.5 -29t132.5 -79t94 -117.5t57.5 -144t18.5 -158.5t-19 -159.5t-58 -145.5t-94 -118.5t-132 -80t-168 -29.5q-114 0 -206 44.5t-149 119.5t-87.5 169.5t-30.5 199.5zM225 504q0 -69 18 -132.5t53 -117 t94.5 -85.5t135.5 -32t135 32t94 86t52.5 117t17.5 132t-17.5 132t-52.5 115.5t-94 83.5t-135 31t-135.5 -31t-94.5 -83t-53 -115t-18 -133zM233 1530h177l180 -313h-135z" />
<glyph unicode="&#xf3;" horiz-adv-x="1026" d="M51 504q0 104 30.5 197.5t87.5 168t149 118.5t206 44q91 0 168.5 -29t132.5 -79t94 -117.5t57.5 -144t18.5 -158.5t-19 -159.5t-58 -145.5t-94 -118.5t-132 -80t-168 -29.5q-114 0 -206 44.5t-149 119.5t-87.5 169.5t-30.5 199.5zM225 504q0 -69 18 -132.5t53 -117 t94.5 -85.5t135.5 -32t135 32t94 86t52.5 117t17.5 132t-17.5 132t-52.5 115.5t-94 83.5t-135 31t-135.5 -31t-94.5 -83t-53 -115t-18 -133zM438 1217h135l222 313h-177z" />
<glyph unicode="&#xf4;" horiz-adv-x="1026" d="M51 504q0 104 30.5 197.5t87.5 168t149 118.5t206 44q91 0 168.5 -29t132.5 -79t94 -117.5t57.5 -144t18.5 -158.5t-19 -159.5t-58 -145.5t-94 -118.5t-132 -80t-168 -29.5q-114 0 -206 44.5t-149 119.5t-87.5 169.5t-30.5 199.5zM225 504q0 -69 18 -132.5t53 -117 t94.5 -85.5t135.5 -32t135 32t94 86t52.5 117t17.5 132t-17.5 132t-52.5 115.5t-94 83.5t-135 31t-135.5 -31t-94.5 -83t-53 -115t-18 -133zM244 1217l215 409h108l209 -409h-141l-121 251l-129 -251h-141z" />
<glyph unicode="&#xf5;" horiz-adv-x="1048" d="M51 504q0 104 30.5 197.5t87.5 168t149 118.5t206 44q91 0 168.5 -29t132.5 -79t94 -117.5t57.5 -144t18.5 -158.5t-19 -159.5t-58 -145.5t-94 -118.5t-132 -80t-168 -29.5q-114 0 -206 44.5t-149 119.5t-87.5 169.5t-30.5 199.5zM74 1217q84 84 138.5 111.5t125.5 27.5 q34 0 73 -10t65.5 -20.5t76.5 -33.5q103 -49 160 -49q46 0 80.5 17.5t91.5 74.5l92 -92q-84 -84 -138.5 -111.5t-125.5 -27.5q-77 0 -217 63q-38 18 -56.5 26t-48 16t-55.5 8q-45 0 -80 -18t-92 -75zM225 504q0 -69 18 -132.5t53 -117t94.5 -85.5t135.5 -32t135 32t94 86 t52.5 117t17.5 132t-17.5 132t-52.5 115.5t-94 83.5t-135 31t-135.5 -31t-94.5 -83t-53 -115t-18 -133z" />
<glyph unicode="&#xf6;" horiz-adv-x="1026" d="M51 504q0 104 30.5 197.5t87.5 168t149 118.5t206 44q91 0 168.5 -29t132.5 -79t94 -117.5t57.5 -144t18.5 -158.5t-19 -159.5t-58 -145.5t-94 -118.5t-132 -80t-168 -29.5q-114 0 -206 44.5t-149 119.5t-87.5 169.5t-30.5 199.5zM225 504q0 -69 18 -132.5t53 -117 t94.5 -85.5t135.5 -32t135 32t94 86t52.5 117t17.5 132t-17.5 132t-52.5 115.5t-94 83.5t-135 31t-135.5 -31t-94.5 -83t-53 -115t-18 -133zM240 1319q0 41 29.5 71.5t70.5 30.5t71.5 -30.5t30.5 -71.5t-30.5 -70.5t-71.5 -29.5t-70.5 29.5t-29.5 70.5zM588 1319 q0 41 29.5 71.5t70.5 30.5t72 -30.5t31 -71.5t-30.5 -70.5t-72.5 -29.5q-41 0 -70.5 29.5t-29.5 70.5z" />
<glyph unicode="&#xf7;" horiz-adv-x="868" d="M51 449v172h766v-172h-766zM332 260q0 41 29.5 71.5t70.5 30.5t72 -30.5t31 -71.5t-30.5 -70.5t-72.5 -29.5q-41 0 -70.5 29.5t-29.5 70.5zM332 811q0 41 29.5 71.5t70.5 30.5t72 -30.5t31 -71.5t-30.5 -70.5t-72.5 -29.5q-41 0 -70.5 29.5t-29.5 70.5z" />
<glyph unicode="&#xf8;" horiz-adv-x="1011" d="M25 -41l139 197q-92 140 -92 348q0 84 15.5 160t50 144t85 118t125 79t166.5 29q139 0 234 -61l63 90h176l-135 -191q102 -143 102 -368q0 -84 -15.5 -160t-50 -145t-85 -119t-124.5 -79.5t-165 -29.5q-139 0 -248 78l-63 -90h-178zM246 504q0 -116 30 -193l373 525 q-56 32 -133 32q-76 0 -130.5 -30.5t-84 -84.5t-42.5 -115.5t-13 -133.5zM367 188q74 -51 149 -51q61 0 108.5 21.5t77 56.5t48.5 84t26.5 99t7.5 106q0 136 -39 221z" />
<glyph unicode="&#xf9;" horiz-adv-x="1081" d="M139 322q0 -187 110.5 -269t319.5 -82q76 0 141 5t104.5 12.5t68 14.5t39.5 12l12 5v984h-176v-844q-41 -21 -174 -21q-61 0 -107.5 9t-84 31t-57.5 62t-20 97v666h-176v-682zM246 1530h176l180 -313h-135z" />
<glyph unicode="&#xfa;" horiz-adv-x="1081" d="M139 322q0 -187 110.5 -269t319.5 -82q76 0 141 5t104.5 12.5t68 14.5t39.5 12l12 5v984h-176v-844q-41 -21 -174 -21q-61 0 -107.5 9t-84 31t-57.5 62t-20 97v666h-176v-682zM471 1217h135l221 313h-176z" />
<glyph unicode="&#xfb;" horiz-adv-x="1081" d="M139 322q0 -187 110.5 -269t319.5 -82q76 0 141 5t104.5 12.5t68 14.5t39.5 12l12 5v984h-176v-844q-41 -21 -174 -21q-61 0 -107.5 9t-84 31t-57.5 62t-20 97v666h-176v-682zM276 1217l216 409h108l209 -409h-141l-121 251l-129 -251h-142z" />
<glyph unicode="&#xfc;" horiz-adv-x="1081" d="M139 322q0 -187 110.5 -269t319.5 -82q76 0 141 5t104.5 12.5t68 14.5t39.5 12l12 5v984h-176v-844q-41 -21 -174 -21q-61 0 -107.5 9t-84 31t-57.5 62t-20 97v666h-176v-682zM260 1319q0 41 29.5 71.5t70.5 30.5t72 -30.5t31 -71.5t-30.5 -70.5t-72.5 -29.5 q-41 0 -70.5 29.5t-29.5 70.5zM608 1319q0 41 30 71.5t71 30.5t71.5 -30.5t30.5 -71.5t-30.5 -70.5t-71.5 -29.5t-71 29.5t-30 70.5z" />
<glyph unicode="&#xfd;" horiz-adv-x="956" d="M41 1004h170l270 -850l269 850h165l-292 -928q-31 -89 -59.5 -156.5t-58.5 -121t-56.5 -90.5t-61 -64.5t-65 -43.5t-74.5 -27t-83.5 -15.5t-98.5 -8.5l40 166q72 2 126 27t80.5 58.5t42.5 67t19 56.5l3 23zM418 1217h135l221 313h-176z" />
<glyph unicode="&#xfe;" horiz-adv-x="1064" d="M90 -410h176v396l38 -5q38 -5 100 -9.5t141 1.5q448 37 448 535q0 259 -110 391.5t-297 132.5q-72 0 -131 -11.5t-92.5 -28.5t-57 -34t-31.5 -28l-8 -12v516h-176v-1844zM266 162v278q0 70 3.5 121t14 102t30 85.5t50 62t76 40.5t105.5 13q268 0 268 -342 q0 -39 -2.5 -71.5t-10 -70.5t-20 -68t-34 -60t-50 -51t-70 -37t-93 -21.5t-119.5 -1t-148 20.5z" />
<glyph unicode="&#xff;" horiz-adv-x="956" d="M41 1004h170l270 -850l269 850h165l-292 -928q-31 -89 -59.5 -156.5t-58.5 -121t-56.5 -90.5t-61 -64.5t-65 -43.5t-74.5 -27t-83.5 -15.5t-98.5 -8.5l40 166q72 2 126 27t80.5 58.5t42.5 67t19 56.5l3 23zM193 1319q0 41 29.5 71.5t70.5 30.5t71.5 -30.5t30.5 -71.5 t-30.5 -70.5t-71.5 -29.5t-70.5 29.5t-29.5 70.5zM541 1319q0 41 29.5 71.5t70.5 30.5t71.5 -30.5t30.5 -71.5t-30.5 -70.5t-71.5 -29.5t-70.5 29.5t-29.5 70.5z" />
<glyph unicode="&#x152;" horiz-adv-x="1796" d="M113 721q0 118 19.5 223t65 200.5t113 164t170.5 109t232 40.5q88 0 182 -24h2h817v-185h-631v-446h510v-185h-510v-434h631v-184h-817q-79 -20 -184 -20q-129 0 -232 41t-170.5 110t-113 165t-65 201.5t-19.5 223.5zM299 721q0 -84 14.5 -163.5t46.5 -153t79.5 -128 t117.5 -87.5t156 -33q100 0 184 43v1038q-88 45 -184 45q-86 0 -156 -32.5t-117.5 -86.5t-79.5 -127t-46.5 -152t-14.5 -163z" />
<glyph unicode="&#x153;" horiz-adv-x="1722" d="M51 504q0 105 27 198t80.5 167.5t142.5 118.5t203 44q122 0 214.5 -50t147.5 -136q54 87 147.5 136.5t219.5 49.5q153 0 258.5 -79t151.5 -213.5t34 -307.5h-710q6 -61 22.5 -111.5t47 -93t81.5 -66.5t117 -24q53 0 100 15.5t77 37.5t52.5 45t32.5 37.5t10 16.5l144 -88 q1 -1 -13 -24.5t-47 -57.5t-79 -67.5t-120.5 -57t-158.5 -23.5q-123 0 -216.5 51.5t-148.5 139.5q-55 -88 -148.5 -139.5t-215.5 -51.5q-114 0 -203 44.5t-142.5 120t-80.5 169t-27 199.5zM225 504q0 -71 15 -133t46 -116.5t87.5 -86t132.5 -31.5t132 32t86.5 86.5t45 116.5 t14.5 132q0 71 -14.5 132.5t-45 114.5t-86.5 84t-132 31q-61 0 -110 -20.5t-80.5 -55t-52.5 -81.5t-29.5 -98t-8.5 -107zM965 600h540q-2 24 -9 51.5t-26 68t-46.5 71t-77 53t-111.5 22.5t-111.5 -22.5t-77 -53t-46.5 -71t-26 -68t-9 -51.5z" />
<glyph unicode="&#x178;" horiz-adv-x="1191" d="M31 1434l473 -818l2 -616h176v616l469 818h-193l-362 -627l-360 627h-205zM317 1614q0 41 30 71.5t71 30.5t71.5 -30.5t30.5 -71.5t-30.5 -71t-71.5 -30t-71 30t-30 71zM666 1614q0 41 29.5 71.5t70.5 30.5t71.5 -30.5t30.5 -71.5t-30.5 -71t-71.5 -30t-70.5 30t-29.5 71 z" />
<glyph unicode="&#x2c6;" horiz-adv-x="593" d="M31 1024l215 410h108l209 -410h-141l-121 252l-129 -252h-141z" />
<glyph unicode="&#x2dc;" horiz-adv-x="964" d="M29 1315q84 84 138.5 111.5t125.5 27.5q49 0 96 -15.5t119 -47.5q38 -18 56.5 -26t48 -16t55.5 -8q45 0 80 18t92 75l92 -93q-84 -84 -138.5 -111.5t-125.5 -27.5q-34 0 -73 10t-67 21t-77 33q-103 49 -160 49q-46 0 -80.5 -17.5t-91.5 -74.5z" />
<glyph unicode="&#x2000;" horiz-adv-x="952" />
<glyph unicode="&#x2001;" horiz-adv-x="1905" />
<glyph unicode="&#x2002;" horiz-adv-x="952" />
<glyph unicode="&#x2003;" horiz-adv-x="1905" />
<glyph unicode="&#x2004;" horiz-adv-x="635" />
<glyph unicode="&#x2005;" horiz-adv-x="476" />
<glyph unicode="&#x2006;" horiz-adv-x="317" />
<glyph unicode="&#x2007;" horiz-adv-x="317" />
<glyph unicode="&#x2008;" horiz-adv-x="238" />
<glyph unicode="&#x2009;" horiz-adv-x="381" />
<glyph unicode="&#x200a;" horiz-adv-x="105" />
<glyph unicode="&#x2010;" horiz-adv-x="868" d="M51 449v172h766v-172h-766z" />
<glyph unicode="&#x2011;" horiz-adv-x="868" d="M51 449v172h766v-172h-766z" />
<glyph unicode="&#x2012;" horiz-adv-x="868" d="M51 449v172h766v-172h-766z" />
<glyph unicode="&#x2013;" horiz-adv-x="985" d="M78 449v172h827v-172h-827z" />
<glyph unicode="&#x2014;" horiz-adv-x="1638" d="M78 449v172h1476v-172h-1476z" />
<glyph unicode="&#x2018;" horiz-adv-x="202" d="M-6 1360q0 51 11.5 93.5t28 67.5t33 42t27.5 23l12 7l52 -53q-33 -19 -52 -40.5t-22 -33.5l-2 -12q5 1 13 1t29 -3t37 -11.5t29 -29t13 -51.5q0 -38 -13 -63.5t-33.5 -34t-31.5 -11t-23 -2.5t-24 2.5t-34 11t-36 34t-14 63.5z" />
<glyph unicode="&#x2019;" horiz-adv-x="202" d="M-6 1343q0 31 9.5 54t21 33.5t28.5 16.5t25 6.5t16 0.5q9 0 17.5 -0.5t26.5 -6.5t31 -16.5t23.5 -33.5t10.5 -54q0 -51 -11.5 -93.5t-28.5 -67.5t-33.5 -42t-27.5 -24l-12 -6l-51 53q33 19 52 40.5t21 33.5l3 12q-5 -1 -13 -1t-29 3t-37 11.5t-29 29t-13 51.5z" />
<glyph unicode="&#x201a;" horiz-adv-x="352" d="M72 74q0 31 9.5 53.5t21 33t28.5 16.5t24.5 6.5t16.5 0.5t17 -0.5t26.5 -6.5t31.5 -16.5t23.5 -33t10.5 -53.5q0 -51 -11.5 -94t-28.5 -67.5t-33.5 -42t-27.5 -24.5l-12 -6l-51 54q33 19 52 40.5t21 33.5l3 12q-5 -1 -13 -1t-29 3t-37 11.5t-29 29t-13 51.5z" />
<glyph unicode="&#x201c;" horiz-adv-x="489" d="M-6 1360q0 51 11.5 93.5t28 67.5t33 42t27.5 23l12 7l52 -53q-33 -19 -52 -40.5t-22 -33.5l-2 -12q5 1 13 1t29 -3t37 -11.5t29 -29t13 -51.5q0 -38 -13 -63.5t-33.5 -34t-31.5 -11t-23 -2.5t-24 2.5t-34 11t-36 34t-14 63.5zM281 1360q0 51 11.5 93.5t28 67.5t33 42 t28.5 23l11 7l51 -53q-33 -19 -51.5 -40.5t-20.5 -33.5l-3 -12q5 1 13 1t28.5 -3t36.5 -11.5t29 -29t13 -51.5t-9.5 -54t-21 -33.5t-28.5 -16.5t-25 -6.5t-16 -0.5q-12 0 -24 2.5t-34 11t-36 34t-14 63.5z" />
<glyph unicode="&#x201d;" horiz-adv-x="489" d="M-6 1343q0 31 9.5 54t21 33.5t28.5 16.5t25 6.5t16 0.5q9 0 17.5 -0.5t26.5 -6.5t31 -16.5t23.5 -33.5t10.5 -54q0 -51 -11.5 -93.5t-28.5 -67.5t-33.5 -42t-27.5 -24l-12 -6l-51 53q33 19 52 40.5t21 33.5l3 12q-5 -1 -13 -1t-29 3t-37 11.5t-29 29t-13 51.5zM281 1343 q0 31 9.5 54t21 33.5t28.5 16.5t25 6.5t16 0.5q12 0 24 -2.5t34 -11t36 -34t14 -63.5q0 -51 -11.5 -93.5t-28 -67.5t-33 -42t-28.5 -24l-11 -6l-51 53q33 19 51.5 40.5t20.5 33.5l3 12q-5 -1 -13 -1t-28.5 3t-36.5 11.5t-29 29t-13 51.5z" />
<glyph unicode="&#x201e;" horiz-adv-x="638" d="M72 74q0 31 9.5 53.5t21 33t28.5 16.5t24.5 6.5t16.5 0.5t17 -0.5t26.5 -6.5t31.5 -16.5t23.5 -33t10.5 -53.5q0 -51 -11.5 -94t-28.5 -67.5t-33.5 -42t-27.5 -24.5l-12 -6l-51 54q33 19 52 40.5t21 33.5l3 12q-5 -1 -13 -1t-29 3t-37 11.5t-29 29t-13 51.5zM358 74 q0 31 9.5 53.5t21.5 33t29 16.5t24.5 6.5t16.5 0.5t17 -0.5t26.5 -6.5t31 -16.5t23 -33t10.5 -53.5q0 -51 -11.5 -94t-28 -67.5t-33 -42t-28.5 -24.5l-11 -6l-52 54q33 19 52 40.5t21 33.5l3 12q-5 -1 -13 -1t-29 3t-37 11.5t-29 29t-13 51.5z" />
<glyph unicode="&#x2022;" horiz-adv-x="579" d="M61 621q0 95 66.5 162t161.5 67t162 -67t67 -162t-67 -161.5t-162 -66.5t-161.5 66.5t-66.5 161.5z" />
<glyph unicode="&#x2026;" horiz-adv-x="1533" d="M51 80q0 41 30 71.5t71 30.5t71.5 -30.5t30.5 -71.5t-30.5 -70.5t-71.5 -29.5t-71 29.5t-30 70.5zM666 80q0 41 29.5 71.5t70.5 30.5t71.5 -30.5t30.5 -71.5t-30.5 -70.5t-71.5 -29.5t-70.5 29.5t-29.5 70.5zM1280 80q0 41 29.5 71.5t70.5 30.5t72 -30.5t31 -71.5 t-30.5 -70.5t-72.5 -29.5q-41 0 -70.5 29.5t-29.5 70.5z" />
<glyph unicode="&#x202f;" horiz-adv-x="381" />
<glyph unicode="&#x2039;" horiz-adv-x="700" d="M20 457v88l619 459v-224l-399 -278l399 -279v-223z" />
<glyph unicode="&#x203a;" horiz-adv-x="700" d="M61 0l619 457v88l-619 459v-224l400 -278l-400 -279v-223z" />
<glyph unicode="&#x205f;" horiz-adv-x="476" />
<glyph unicode="&#x20ac;" horiz-adv-x="1413" d="M51 508h160q21 -114 64.5 -207t112.5 -166.5t173 -114t234 -40.5q221 0 365 106t202 287l-174 88q-42 -137 -143.5 -221t-249.5 -84q-153 0 -250 97.5t-137 254.5h399l80 168h-504q0 7 -1 22.5t-1 22.5q0 35 2 53h549l78 168h-600q42 153 137.5 246.5t247.5 93.5 q148 0 249.5 -84t143.5 -221l174 88q-58 181 -202 287t-365 106q-129 0 -232 -39.5t-172 -111.5t-112 -163t-64 -202h-86l-78 -168h144v-53v-45h-66z" />
<glyph unicode="&#x2122;" horiz-adv-x="1085" d="M61 1339h150v-458h96v458h148v95h-394v-95zM518 881v553h98l156 -306l154 306h98v-553h-98v358l-127 -264h-56l-127 264v-358h-98z" />
<glyph unicode="&#xe000;" horiz-adv-x="1003" d="M0 0v1004h1004v-1004h-1004z" />
<glyph unicode="&#xfb01;" horiz-adv-x="1069" d="M123 844h143v-844h176v844h277v-844h176v1004h-453v204q0 44 20.5 64t72.5 20q69 0 112 -20q16 -8 32.5 -27.5t29 -37.5t37.5 -32t59 -14q52 0 84.5 38t32.5 79q0 90 -111 129q-125 47 -344 47q-94 0 -147.5 -64t-53.5 -159v-227h-143v-160z" />
<glyph unicode="&#xfb02;" horiz-adv-x="1167" d="M123 844h143v-844h176v844h303v-649q0 -95 53.5 -159.5t147.5 -64.5q89 0 178 23v151q-66 -12 -110 -12q-52 0 -72 20.5t-20 65.5v1215h-480q-49 0 -85.5 -16.5t-53 -39.5t-26 -46t-10.5 -40l-1 -16v-272h-143v-160zM442 1004v196q0 25 11 39.5t21 16.5l11 1h260v-253 h-303z" />
</font>
</defs>
</svg>
