<?xml version="1.0" encoding="utf-8"?>
<!-- Generator: Adobe Illustrator 17.1.0, SVG Export Plug-In . SVG Version: 6.00 Build 0)  -->
<!DOCTYPE svg PUBLIC "-//W3C//DTD SVG 1.1//EN" "http://www.w3.org/Graphics/SVG/1.1/DTD/svg11.dtd">
<svg version="1.1" id="Capa_1" xmlns="http://www.w3.org/2000/svg" xmlns:xlink="http://www.w3.org/1999/xlink" x="0px" y="0px"
	 viewBox="0 0 459 459" enable-background="new 0 0 459 459" xml:space="preserve">
<g>
	<polygon fill="none" points="422.7,210.9 405.2,158.3 316.9,158.3 335.3,210.9 	"/>
	<path fill="none" d="M53.9,234.3c-9.4,0-17.5,8.2-17.5,17.5c0,9.4,8.2,17.5,17.5,17.5s17.5-8.2,17.5-17.5
		C71.5,242.5,63.3,234.3,53.9,234.3z"/>
	<polygon fill="none" points="53.9,158.3 36.4,210.9 130,210.9 148.4,158.3 	"/>
	<path fill="none" d="M405.2,234.3c-9.4,0-17.5,8.2-17.5,17.5c0,9.4,8.2,17.5,17.5,17.5c9.4,0,17.5-8.2,17.5-17.5
		C422.7,242.5,414.5,234.3,405.2,234.3z"/>
	<path fill="#555555" d="M130,210.9H36.4l17.5-52.6h94.5l2.2-6.3c1.8-5.4,5.4-9.3,10.2-11.2H53.9c-8.2,0-14,4.7-16.4,11.7L13,222.6
		v93.5c0,7,4.7,11.7,11.7,11.7h11.7c7,0,11.7-4.7,11.7-11.7v-11.7h78v-82.1L130,210.9z M53.9,269.4c-9.4,0-17.5-8.2-17.5-17.5
		c0-9.4,8.2-17.5,17.5-17.5s17.5,8.2,17.5,17.5C71.5,261.2,63.3,269.4,53.9,269.4z"/>
	<path fill="#555555" d="M421.6,152.5c-2.3-7-9.4-11.7-16.4-11.7H304c4.9,2.1,9,6.2,10.7,11.2l2.2,6.3h88.3l17.5,52.6h-87.4l4,11.4
		v82.1H411v11.7c0,7,4.7,11.7,11.7,11.7h11.7c7,0,11.7-4.7,11.7-11.7v-93.5L421.6,152.5z M405.2,269.4c-9.4,0-17.5-8.2-17.5-17.5
		c0-9.4,8.2-17.5,17.5-17.5c9.4,0,17.5,8.2,17.5,17.5C422.7,261.2,414.5,269.4,405.2,269.4z"/>
	<path fill="#555555" d="M332.3,210.9l-18.4-52.6L312,153c-2.1-6.2-8.4-10.7-15-10.7h-27.6h-80.1h-20.9c-7.3,0-12.7,3.9-15,10.7
		l-1.9,5.4l-18.4,52.6l-4.2,11.9v81.6v11.7c0,6.2,4,10.3,10.3,10.3h11.7c6.2,0,10.3-4,10.3-10.3v-11.7V303h62.3h12.2h68.6v1.4v11.7
		c0,6.2,4,10.3,10.3,10.3h11.7c6.2,0,10.3-4,10.3-10.3v-11.7v-81.6L332.3,210.9z M177.2,268.5c-2.7,1.5-5.7,2.3-8.8,2.3
		c-10.1,0-19-8.9-19-19c0-10.1,8.9-19,19-19c3.1,0,6.1,0.9,8.8,2.3c5.9,3.3,10.2,9.7,10.2,16.6C187.4,258.8,183.1,265.2,177.2,268.5
		z M219.8,212.4h-71l0.5-1.4l17.5-52.6l0.5-1.4h33.1h58.3H298l0.5,1.4l17.5,52.6l0.5,1.4h-77.2H219.8z M297,270.8
		c-4.2,0-8.2-1.5-11.4-4.1c-2.7,1.7-5.7,2.6-9,2.6c-9.4,0-17.5-8.2-17.5-17.5s8.2-17.5,17.5-17.5c3.2,0,6.3,1,9,2.6
		c3.2-2.5,7.2-4.1,11.4-4.1c10.1,0,19,8.9,19,19C316,262,307.1,270.8,297,270.8z"/>
	<polygon fill="#FFFFFF" points="148.4,158.3 130,210.9 131.6,210.9 150,158.3 	"/>
	<polygon fill="#FFFFFF" points="333.8,210.9 335.3,210.9 316.9,158.3 315.4,158.3 	"/>
	<path fill="#FFFFFF" d="M150.7,152l-2.2,6.3h1.5l2-5.8c2.3-7,8.2-11.7,16.4-11.7h-7.5C156.1,142.8,152.4,146.6,150.7,152z"/>
	<polygon fill="#FFFFFF" points="127.5,222.6 131.6,210.9 130,210.9 126,222.4 126,304.5 127.5,304.5 	"/>
	<path fill="#FFFFFF" d="M313.3,152.5l2,5.8h1.5l-2.2-6.3c-1.7-5.1-5.8-9.2-10.7-11.2h-7C304,140.8,311,145.5,313.3,152.5z"/>
	<polygon fill="#FFFFFF" points="335.3,210.9 333.8,210.9 337.9,222.6 337.9,304.5 339.3,304.5 339.3,222.4 	"/>
	<path fill="#FFFFFF" d="M336.5,316.1c0,6.2-4,10.3-10.3,10.3h-11.7c-6.2,0-10.3-4-10.3-10.3v-11.7h-1.4v11.7
		c0,7,4.7,11.7,11.7,11.7h11.7c7,0,11.7-4.7,11.7-11.7v-11.7h-1.4V316.1z"/>
	<path fill="#FFFFFF" d="M269.3,142.2c2.1-0.9,4.6-1.4,7.3-1.4h-94.1c2.3,0,4.6,0.5,6.7,1.4H269.3z"/>
	<path fill="#FFFFFF" d="M161.1,316.1c0,6.2-4,10.3-10.3,10.3h-11.7c-6.2,0-10.3-4-10.3-10.3v-11.7h-1.4v11.7
		c0,7,4.7,11.7,11.7,11.7h11.7c7,0,11.7-4.7,11.7-11.7v-11.7h-1.4V316.1z"/>
	<path fill="#FFFFFF" d="M168.4,269.4c-9.4,0-17.5-8.2-17.5-17.5c0-9.4,8.2-17.5,17.5-17.5c2.5,0,4.9,0.6,7.1,1.6
		c0.6-0.3,1.2-0.5,1.8-0.7c-2.7-1.5-5.7-2.3-8.8-2.3c-10.1,0-19,8.9-19,19c0,10.1,8.9,19,19,19c3.1,0,6.1-0.9,8.8-2.3
		c-0.6-0.2-1.2-0.4-1.8-0.7C173.3,268.8,170.9,269.4,168.4,269.4z"/>
	<path fill="#555555" d="M278,251.8c0-5.9,3-11.4,7.5-14.9c-2.7-1.7-5.7-12.6-9-12.6c-9.4,0-27.5,18.2-27.5,27.5
		c0,9.4,18.2,27.5,27.5,27.5c3.2,0,6.3-11,9-12.6C281,263.2,278,257.7,278,251.8z"/>
</g>
</svg>
